<?xml version="1.0" encoding="utf-8"?>
<!-- Generator: Adobe Illustrator 19.1.0, SVG Export Plug-In . SVG Version: 6.00 Build 0)  -->
<svg version="1.1" id="Layer_1" xmlns="http://www.w3.org/2000/svg" xmlns:xlink="http://www.w3.org/1999/xlink" x="0px" y="0px"
	 width="75px" height="75px" viewBox="0 0 75 75" enable-background="new 0 0 75 75" xml:space="preserve">
<path id="path-1" fill="#FFFFFF" d="M37.5,75C16.8,75,0,58.2,0,37.5C0,16.8,16.8,0,37.5,0S75,16.8,75,37.5C75,58.2,58.2,75,37.5,75z
	 M51.2,37.4c0-1.5-0.1-2.9-0.4-4.2l-2-8.5c-0.1-1-0.7-1.8-1.8-2.6c-1.1-0.7-2.5-1.3-4.3-1.7C41,20.2,39,20,36.9,20
	c-2.1,0-4.1,0.2-5.8,0.6c-1.8,0.4-3.2,0.9-4.3,1.7c-1.1,0.7-1.7,1.6-1.8,2.6l-1.9,8.5c-0.3,1.4-0.5,2.8-0.5,4.2v11.2H25v2.4
	c0,0.7,0.2,1.2,0.7,1.7c0.5,0.5,1,0.7,1.7,0.7c0.7,0,1.2-0.2,1.7-0.7c0.5-0.5,0.7-1,0.7-1.7v-2.4h14.3v2.4c0,0.7,0.2,1.2,0.7,1.7
	c0.5,0.5,1,0.7,1.7,0.7c0.7,0,1.2-0.2,1.7-0.7c0.5-0.5,0.7-1,0.7-1.7v-2.4h2.4V37.4z M46.5,45.1c-0.7,0-1.2-0.2-1.7-0.7
	s-0.7-1-0.7-1.7c0-0.7,0.2-1.2,0.7-1.7s1-0.7,1.7-0.7c0.7,0,1.2,0.2,1.7,0.7s0.7,1,0.7,1.7c0,0.7-0.2,1.2-0.7,1.7
	S47.1,45.1,46.5,45.1z M46.8,36.7H27c-0.4,0-0.7-0.1-0.9-0.4c-0.2-0.3-0.3-0.6-0.3-1l1.3-7.2c0.1-0.3,0.2-0.5,0.4-0.7
	c0.2-0.2,0.5-0.3,0.8-0.3h17.1c0.3,0,0.5,0.1,0.8,0.3c0.2,0.2,0.4,0.4,0.4,0.7l1.3,7.2c0.1,0.4,0,0.7-0.3,1
	C47.5,36.6,47.2,36.7,46.8,36.7z M42.9,24.8H30.9c-0.2,0-0.5-0.1-0.6-0.3c-0.2-0.2-0.3-0.4-0.3-0.6c0-0.2,0.1-0.5,0.3-0.6
	c0.2-0.2,0.4-0.3,0.6-0.3h11.9c0.2,0,0.5,0.1,0.6,0.3c0.2,0.2,0.3,0.4,0.3,0.6c0,0.2-0.1,0.5-0.3,0.6C43.3,24.7,43.1,24.8,42.9,24.8
	z M29.1,41c0.5,0.5,0.7,1,0.7,1.7c0,0.7-0.2,1.2-0.7,1.7c-0.5,0.5-1,0.7-1.7,0.7c-0.7,0-1.2-0.2-1.7-0.7c-0.5-0.5-0.7-1-0.7-1.7
	c0-0.7,0.2-1.2,0.7-1.7c0.5-0.5,1-0.7,1.7-0.7C28,40.3,28.6,40.5,29.1,41z"/>
<g>
</g>
<g>
</g>
<g>
</g>
<g>
</g>
<g>
</g>
<g>
</g>
<g>
</g>
<g>
</g>
<g>
</g>
<g>
</g>
<g>
</g>
</svg>
