<svg xmlns="http://www.w3.org/2000/svg" xmlns:xlink="http://www.w3.org/1999/xlink" preserveAspectRatio="xMidYMid" width="75" height="75" viewBox="0 0 75 75">
  <path d="M37.500,75.000 C16.789,75.000 -0.000,58.210 -0.000,37.501 C-0.000,16.790 16.789,0.000 37.500,0.000 C58.211,0.000 75.000,16.790 75.000,37.501 C75.000,58.210 58.211,75.000 37.500,75.000 ZM56.838,31.763 C56.838,31.299 56.465,30.926 56.003,30.926 C56.003,30.926 53.175,30.926 53.175,30.926 C52.959,30.926 52.753,31.009 52.597,31.158 C52.597,31.158 51.993,31.738 51.993,31.738 C50.976,29.380 49.515,27.049 47.543,24.635 C46.478,23.333 44.901,22.585 43.218,22.585 C43.218,22.585 31.895,22.585 31.895,22.585 C30.211,22.585 28.635,23.333 27.570,24.635 C25.535,27.126 24.104,29.401 23.111,31.729 C23.111,31.729 22.516,31.158 22.516,31.158 C22.360,31.009 22.153,30.926 21.938,30.926 C21.938,30.926 19.110,30.926 19.110,30.926 C18.648,30.926 18.274,31.299 18.274,31.763 C18.274,31.763 18.274,33.698 18.274,33.698 C18.274,34.140 18.617,34.505 19.057,34.532 C19.057,34.532 21.964,34.715 21.964,34.715 C21.525,35.999 21.182,37.915 21.182,40.615 C21.182,42.958 21.650,44.498 22.463,45.492 C22.463,45.492 22.463,50.004 22.463,50.004 C22.463,50.391 22.776,50.705 23.163,50.705 C23.163,50.705 26.380,50.705 26.380,50.705 C26.767,50.705 27.080,50.391 27.080,50.004 C27.080,50.004 27.080,47.203 27.080,47.203 C27.080,47.203 48.033,47.203 48.033,47.203 C48.033,47.203 48.033,50.004 48.033,50.004 C48.033,50.391 48.346,50.705 48.732,50.705 C48.732,50.705 51.950,50.705 51.950,50.705 C52.336,50.705 52.650,50.391 52.650,50.004 C52.650,50.004 52.650,45.492 52.650,45.492 C53.463,44.498 53.931,42.958 53.931,40.615 C53.931,37.915 53.588,35.999 53.149,34.715 C53.149,34.715 56.056,34.532 56.056,34.532 C56.496,34.505 56.838,34.140 56.838,33.698 C56.838,33.698 56.838,31.763 56.838,31.763 ZM47.536,43.779 C45.934,43.779 44.636,43.254 44.636,41.984 C44.636,40.714 46.762,39.685 48.363,39.685 C49.965,39.685 50.436,40.714 50.436,41.984 C50.436,43.254 49.138,43.779 47.536,43.779 ZM29.957,26.591 C30.434,26.007 31.141,25.673 31.895,25.673 C31.895,25.673 43.218,25.673 43.218,25.673 C43.972,25.673 44.678,26.007 45.156,26.591 C46.536,28.279 47.625,29.895 48.467,31.504 C48.467,31.504 26.626,31.509 26.626,31.509 C27.450,29.935 28.546,28.318 29.957,26.591 ZM30.477,41.984 C30.477,43.254 29.178,43.779 27.577,43.779 C25.975,43.779 24.677,43.254 24.677,41.984 C24.677,40.714 25.148,39.685 26.750,39.685 C28.351,39.685 30.477,40.714 30.477,41.984 ZM33.320,41.385 C33.320,41.385 41.793,41.385 41.793,41.385 C42.050,41.385 42.258,41.593 42.258,41.850 C42.258,42.767 41.513,43.513 40.596,43.513 C40.596,43.513 34.517,43.513 34.517,43.513 C33.600,43.513 32.855,42.767 32.855,41.850 C32.855,41.593 33.063,41.385 33.320,41.385 Z" id="path-1" class="cls-2" fill-rule="evenodd"/>
</svg>
