<svg xmlns="http://www.w3.org/2000/svg" xmlns:xlink="http://www.w3.org/1999/xlink" preserveAspectRatio="xMidYMid" width="75" height="75" viewBox="0 0 75 75">
  <defs>
    <style>

      .cls-2 {
        fill: #ffffff;
      }
    </style>
  </defs>
  <path d="M37.500,75.000 C16.789,75.000 0.000,58.210 0.000,37.501 C0.000,16.790 16.789,0.000 37.500,0.000 C58.211,0.000 75.000,16.790 75.000,37.501 C75.000,58.210 58.211,75.000 37.500,75.000 ZM57.705,35.711 C57.705,35.711 57.705,28.714 57.705,28.714 C57.705,28.714 57.705,25.924 57.705,25.924 C57.705,24.820 56.809,23.925 55.706,23.925 C55.706,23.925 36.128,23.925 36.128,23.925 C35.026,23.925 34.130,24.820 34.130,25.924 C34.130,25.924 34.130,26.765 34.130,26.765 C34.130,26.765 28.277,26.765 28.277,26.765 C27.284,26.765 26.024,27.377 25.409,28.157 C25.409,28.157 21.488,33.134 21.488,33.134 C20.977,33.783 19.913,34.624 19.164,34.970 C19.164,34.970 16.419,36.242 16.419,36.242 C15.491,36.672 14.763,37.810 14.763,38.833 C14.763,38.833 14.763,46.114 14.763,46.114 C14.763,47.189 15.637,48.063 16.712,48.063 C16.712,48.063 17.580,48.063 17.580,48.063 C18.240,50.329 20.334,51.991 22.811,51.991 C25.287,51.991 27.382,50.329 28.042,48.063 C28.042,48.063 41.351,48.063 41.351,48.063 C42.012,50.329 44.106,51.991 46.583,51.991 C49.059,51.991 51.154,50.329 51.814,48.063 C51.814,48.063 55.756,48.063 55.756,48.063 C56.831,48.063 57.705,47.189 57.705,46.114 C57.705,46.114 57.705,35.711 57.705,35.711 ZM51.048,37.091 C51.048,37.091 49.103,37.091 49.103,37.091 C48.928,37.091 48.785,37.234 48.785,37.407 C48.785,37.407 48.785,39.353 48.785,39.353 C48.785,39.909 48.333,40.360 47.779,40.360 C47.779,40.360 44.055,40.360 44.055,40.360 C43.501,40.360 43.050,39.909 43.050,39.353 C43.050,39.353 43.050,37.407 43.050,37.407 C43.050,37.234 42.907,37.091 42.731,37.091 C42.731,37.091 40.787,37.091 40.787,37.091 C40.232,37.091 39.781,36.640 39.781,36.084 C39.781,36.084 39.781,32.361 39.781,32.361 C39.781,31.807 40.232,31.356 40.787,31.356 C40.787,31.356 42.731,31.356 42.731,31.356 C42.907,31.356 43.050,31.213 43.050,31.037 C43.050,31.037 43.050,29.091 43.050,29.091 C43.050,28.537 43.501,28.087 44.055,28.087 C44.055,28.087 47.779,28.087 47.779,28.087 C48.334,28.087 48.785,28.537 48.785,29.091 C48.785,29.091 48.785,31.037 48.785,31.037 C48.785,31.213 48.928,31.356 49.103,31.356 C49.103,31.356 51.048,31.356 51.048,31.356 C51.603,31.356 52.054,31.807 52.054,32.361 C52.054,32.361 52.054,36.084 52.054,36.084 C52.054,36.640 51.603,37.091 51.048,37.091 ZM46.583,43.834 C48.078,43.834 49.290,45.047 49.290,46.542 C49.290,48.036 48.078,49.248 46.583,49.248 C45.088,49.248 43.876,48.036 43.876,46.542 C43.876,45.047 45.088,43.834 46.583,43.834 ZM32.768,35.692 C32.768,35.692 24.600,35.583 24.600,35.583 C23.888,35.573 23.662,35.104 24.098,34.541 C24.098,34.541 27.316,30.380 27.316,30.380 C27.752,29.816 28.690,29.356 29.402,29.356 C29.402,29.356 32.768,29.356 32.768,29.356 C33.480,29.356 34.062,29.937 34.062,30.650 C34.062,30.650 34.062,34.416 34.062,34.416 C34.062,34.416 34.063,34.416 34.063,34.416 C34.063,35.127 33.480,35.702 32.768,35.692 ZM25.518,46.542 C25.518,48.036 24.306,49.248 22.811,49.248 C21.316,49.248 20.104,48.036 20.104,46.542 C20.104,45.047 21.316,43.834 22.811,43.834 C24.306,43.834 25.518,45.047 25.518,46.542 Z" id="path-1" class="cls-2" fill-rule="evenodd"/>
</svg>
