<?xml version="1.0" encoding="utf-8"?>
<!-- Generator: Adobe Illustrator 19.1.0, SVG Export Plug-In . SVG Version: 6.00 Build 0)  -->
<svg version="1.1" id="Layer_1" xmlns="http://www.w3.org/2000/svg" xmlns:xlink="http://www.w3.org/1999/xlink" x="0px" y="0px"
	 width="59.8px" height="60px" viewBox="-7 8 59.8 60" enable-background="new -7 8 59.8 60" xml:space="preserve">
<g>
	<path d="M24.9,33.2c0.1,0.1,0.1,0.1,0.2,0.1s0.2,0,0.2-0.1l1.1-1.2c0.1-0.1,0.1-0.2,0.1-0.2c0-0.1,0-0.2-0.1-0.2l-2.2-2.1
		c-0.1-0.1-0.3-0.1-0.5,0l-1.1,1.2c-0.1,0.1-0.1,0.1-0.1,0.2s0,0.2,0.1,0.2L24.9,33.2z"/>
	<path d="M20,38.2c0.1,0.1,0.1,0.1,0.2,0.1s0.2,0,0.2-0.1l1.1-1.2c0.1-0.1,0.1-0.1,0.1-0.2s0-0.2-0.1-0.2l-2.2-2.1
		c-0.1-0.1-0.3-0.1-0.5,0l-1.1,1.2c-0.1,0.1-0.1,0.2-0.1,0.2c0,0.1,0,0.2,0.1,0.2L20,38.2z"/>
	<g>
		<g>
			<defs>
				<rect id="SVGID_1_" x="-7" y="8" width="59.8" height="60"/>
			</defs>
			<clipPath id="SVGID_2_">
				<use xlink:href="#SVGID_1_"  overflow="visible"/>
			</clipPath>
			<path clip-path="url(#SVGID_2_)" d="M29.1,28.2c0.1,0.1,0.1,0.1,0.2,0.1c0.1,0,0.2,0,0.2-0.1l1.1-1.2c0.1-0.1,0.1-0.2,0.1-0.2
				c0-0.1,0-0.2-0.1-0.2l-2.2-2.1c-0.1-0.1-0.3-0.1-0.5,0l-1.1,1.2c-0.1,0.1-0.1,0.2-0.1,0.2c0,0.1,0,0.2,0.1,0.2L29.1,28.2z"/>
		</g>
		<g>
			<defs>
				<rect id="SVGID_3_" x="-7" y="8" width="59.8" height="60"/>
			</defs>
			<clipPath id="SVGID_4_">
				<use xlink:href="#SVGID_3_"  overflow="visible"/>
			</clipPath>
			<path clip-path="url(#SVGID_4_)" d="M51.9,19.2l-11.6-11c-0.3-0.3-0.7-0.2-0.9,0l-4.1,4.4c-0.2,0.1-0.3,0.3-0.3,0.5
				c0,0.2,0.1,0.3,0.2,0.5l4.3,4.2l-2,2.2l-6.7-6.3c-0.3-0.2-0.7-0.2-0.9,0L-2.6,48.4c-0.1,0.1-0.2,0.3-0.2,0.5s0.1,0.3,0.2,0.5
				l6.2,5.8L-6.8,66.3C-7,66.5-7,66.8-6.9,67.1c0.1,0.2,0.3,0.3,0.6,0.3c0.1,0,0.1,0,0.2,0l6.3-1.9c0.1,0,0.2-0.1,0.3-0.2l6.6-7
				l6.3,5.9c0.3,0.3,0.7,0.2,0.9,0l32.5-34.7c0.1-0.1,0.2-0.3,0.2-0.5s-0.1-0.3-0.2-0.5l-6-5.6l2-2.2l4.1,3.8c0.3,0.3,0.7,0.2,0.9,0
				l4.1-4.4c0.1-0.1,0.2-0.3,0.2-0.5C52.1,19.5,52,19.3,51.9,19.2L51.9,19.2z M41.7,29.2l-28,29.9L2.6,48.7l28-29.9L41.7,29.2z"/>
		</g>
	</g>
	<path d="M4.6,48.9l8.5,7.9c0.1,0.1,0.3,0.2,0.5,0.2s0.4-0.1,0.5-0.2l16.4-16.9c0.2-0.2,0.2-0.5,0.1-0.7c-0.1-0.2-0.3-0.4-0.6-0.4
		c0,0-0.3,0-0.9,0c-2.1,0-5.9,0.1-7.7,0.8c-1.4,0.6-5.5,0.7-8.8,0.7h-0.5c-0.2,0-0.4,0.1-0.5,0.2l-7.1,7.4c-0.1,0.1-0.2,0.3-0.2,0.5
		C4.4,48.6,4.5,48.8,4.6,48.9L4.6,48.9z"/>
</g>
</svg>
