<?xml version="1.0" encoding="utf-8"?>
<!-- Generator: Adobe Illustrator 19.1.0, SVG Export Plug-In . SVG Version: 6.00 Build 0)  -->
<svg version="1.1" id="Layer_1" xmlns="http://www.w3.org/2000/svg" xmlns:xlink="http://www.w3.org/1999/xlink" x="0px" y="0px"
	 width="75px" height="75px" viewBox="0 0 75 75" enable-background="new 0 0 75 75" xml:space="preserve">
<g>
	<g>
		<path d="M53.8,0C42.8,0,34,8.9,34,19.9s8.9,19.9,19.9,19.9s19.9-8.9,19.9-19.9C73.6,8.9,64.6,0,53.8,0z M53.8,32.5
			c-7.1,0-12.9-5.7-12.9-12.9S46.7,6.7,53.8,6.7s12.9,5.7,12.9,12.9C66.5,26.7,60.8,32.5,53.8,32.5z"/>
		<path d="M54.8,10.2c-0.1-0.5-0.5-0.9-1-1c-0.6-0.1-1.2,0.4-1.2,1l-1.2,9.6c0,0,0,0,0,0.1c0,0.1,0,0.1,0,0.2v0.1c0,0.1,0,0.1,0,0.2
			c0,0,0,0,0,0.1c0.1,1.2,1.2,2,2.4,2c0.1,0,0.1,0,0.2,0l9.6-1.2c0.5-0.1,0.9-0.5,1-1c0.1-0.6-0.4-1.2-1-1.2l-7.9-1L54.8,10.2z"/>
		<circle cx="53.8" cy="28.5" r="1.7"/>
		<circle cx="44.7" cy="19.7" r="1.7"/>
		<circle cx="17.4" cy="11.7" r="7.1"/>
		<path d="M35.2,44.9L21.6,25.6v-0.5c0-2.5-2.1-4.6-4.7-4.2c-2.2,0.2-3.9,2.2-3.9,4.5v23.9c0,2.4,1.9,4.4,4.4,4.4h14.4
			c3.5,0,6.4,2.9,6.4,6.4v10.5c0,2.2,1.6,4.4,3.9,4.5c2.5,0.2,4.7-1.7,4.7-4.2V57.6C46.6,51,41.5,45.5,35.2,44.9z M21.7,37.5
			l5.1,7.4h-4.6c-0.4,0-0.6-0.2-0.6-0.6C21.7,44.2,21.7,37.5,21.7,37.5z"/>
		<path d="M29.5,57H16c-3.2,0-6-2.6-6-6V37.1c0-2.5-2.1-4.6-4.7-4.2c-2.2,0.4-3.9,2.4-3.9,4.5v15.9c0,6.7,5.4,12.1,12.1,12.1h11.7
			c0.6,0,1.1,0.5,1.1,1.1v3.7c0,2.2,1.6,4.4,3.9,4.5C32.7,75,35,73,35,70.5v-8.1C35,59.4,32.5,57,29.5,57z"/>
	</g>
</g>
<g>
</g>
<g>
</g>
<g>
</g>
<g>
</g>
<g>
</g>
<g>
</g>
<g>
</g>
<g>
</g>
<g>
</g>
<g>
</g>
<g>
</g>
</svg>
