<?xml version="1.0" encoding="utf-8"?>
<!-- Generator: Adobe Illustrator 18.1.0, SVG Export Plug-In . SVG Version: 6.00 Build 0)  -->
<svg version="1.1" id="Layer_1" xmlns="http://www.w3.org/2000/svg" xmlns:xlink="http://www.w3.org/1999/xlink" x="0px" y="0px"
	 viewBox="0 0 64 64" enable-background="new 0 0 64 64" xml:space="preserve">
<g>
	<g>
		<defs>
			<rect id="SVGID_1_" x="2.5" y="1" width="58.5" height="64"/>
		</defs>
		<clipPath id="SVGID_2_">
			<use xlink:href="#SVGID_1_"  overflow="visible"/>
		</clipPath>
		<path clip-path="url(#SVGID_2_)" d="M57.2,16.4c-0.5-5-1.3-8.9-2.6-10.5c-5.3-6.3-42.7-6.8-46.9,0c-1,1.7-1.8,5.6-2.3,10.5
			c-1.6,0.2-2.8,1.5-2.8,3.1v6.1c0,1.4,0.9,2.5,2.1,3C4.3,38.3,4.6,48.4,5,53.4c0,3.9,2.6,3.2,2.6,3.2H10v4.2c0,1.7,1.7,3,3.8,3
			c2.1,0,3.8-1.3,3.8-3v-4.2h28.4v4.2c0,1.7,1.7,3,3.8,3c2.1,0,3.8-1.3,3.8-3v-4.2h0.8c0,0,3.1,0.4,3.3-1.4c0-5,0.3-16.1,0.1-26.6
			c1.3-0.4,2.2-1.6,2.2-3v-6.1C60.1,17.9,58.8,16.5,57.2,16.4L57.2,16.4z M16.7,6.8h28.7v4.3H16.7V6.8z M17.1,51.7
			c-2.3,0-4.1-1.8-4.1-4.1c0-2.3,1.8-4.1,4.1-4.1c2.2,0,4.1,1.8,4.1,4.1C21.2,49.9,19.4,51.7,17.1,51.7L17.1,51.7z M45.3,51.7
			c-2.3,0-4.1-1.8-4.1-4.1c0-2.3,1.8-4.1,4.1-4.1c2.3,0,4.1,1.8,4.1,4.1C49.3,49.9,47.5,51.7,45.3,51.7L45.3,51.7z M50.4,33.9H11.7
			V13.6h38.7V33.9z M50.4,33.9"/>
	</g>
</g>
</svg>
