<?xml version="1.0" encoding="utf-8"?>
<!-- Generator: Adobe Illustrator 19.1.0, SVG Export Plug-In . SVG Version: 6.00 Build 0)  -->
<svg version="1.1" id="Layer_1" xmlns="http://www.w3.org/2000/svg" xmlns:xlink="http://www.w3.org/1999/xlink" x="0px" y="0px"
	 width="75px" height="75px" viewBox="0 0 75 75" enable-background="new 0 0 75 75" xml:space="preserve">
<g>
	<g>
		<g>
			<defs>
				<rect id="SVGID_1_" x="4.5" y="0.1" width="65.7" height="74.9"/>
			</defs>
			<clipPath id="SVGID_2_">
				<use xlink:href="#SVGID_1_"  overflow="visible"/>
			</clipPath>
			<path clip-path="url(#SVGID_2_)" d="M36.5,0.1c-10.4,0-19.9,4.5-27.7,11.1c-3.9,3.4-5.4,9-3.3,13.8l4.7,11.4
				c4.6-10,14.6-17,26.3-17c11.9,0,22.2,7.3,26.6,17.6l5-12.2c2-4.8,0.7-10.4-3.3-13.8C57,4.4,47.3,0.1,36.5,0.1L36.5,0.1z
				 M42.2,13.1h-3.3v3.4h-4.7V13h-3.5V8.4h3.5V4.9h4.7v3.5h3.3V13.1z"/>
		</g>
	</g>
	<path d="M49.4,26.5L49.4,26.5c0,0-8.3,13-22.7,17.9c-0.5,0.2-1.2,0-1.5-0.5c-0.3-0.5-0.3-1.2,0.1-1.6c0.7-0.8,1.3-1.5,1.9-2.4
		c0.4-0.7,0.4-1.4-0.1-2.1c-0.4-0.7-1.2-0.9-2-0.7c-4.4,1.2-11.5,4.5-13.8,13.7c1.1,13,12.1,23.2,25.3,23.2
		c14,0,25.4-11.4,25.4-25.4C62,39,56.9,30.8,49.4,26.5L49.4,26.5z"/>
</g>
<g>
</g>
<g>
</g>
<g>
</g>
<g>
</g>
<g>
</g>
<g>
</g>
<g>
</g>
<g>
</g>
<g>
</g>
<g>
</g>
<g>
</g>
</svg>
