<?xml version="1.0" encoding="utf-8"?>
<!-- Generator: Adobe Illustrator 18.1.0, SVG Export Plug-In . SVG Version: 6.00 Build 0)  -->
<svg version="1.1" id="Layer_1" xmlns="http://www.w3.org/2000/svg" xmlns:xlink="http://www.w3.org/1999/xlink" x="0px" y="0px"
	 viewBox="0 0 64 64" enable-background="new 0 0 64 64" xml:space="preserve">
<g>
	<g>
		<defs>
			<rect id="SVGID_1_" y="5.9" width="64" height="54"/>
		</defs>
		<clipPath id="SVGID_2_">
			<use xlink:href="#SVGID_1_"  overflow="visible"/>
		</clipPath>
		<path clip-path="url(#SVGID_2_)" d="M42.9,14.4c-0.2-0.1-0.3-0.3-0.5-0.3l-12.1-3.8c-4.8-1.5-8,1.1-8.8,2c-0.5,0.5-0.9,1-1.1,1.5
			l-5.4,12.7c-0.3,0.7-0.2,1.7,0.3,2.7c0.7,1.4,2,2.4,3.4,2.7c1.7,0.4,3.4-0.1,4.8-1.5c0.4-0.4,0.7-0.8,0.8-1.1l1.8-3.4
			c0.3-0.6,0.7-1.1,1.2-1.6c1.6-1.6,2.3-0.8,2.6-0.5c2.7,2.6,17,16.9,17,16.9c0.5,0.5,0.4,1.5-0.2,2.1c-0.6,0.6-1.6,0.7-2.1,0.2
			l-4-4c-0.5-0.5-1.3-0.5-1.9,0c-0.5,0.5-0.5,1.3,0,1.9l4,4c0.5,0.5,0.4,1.5-0.2,2.1s-1.6,0.7-2.1,0.2l-4-4c-0.5-0.5-1.3-0.5-1.9,0
			c-0.5,0.5-0.5,1.3,0,1.9l4,4c0.5,0.5,0.4,1.5-0.2,2.1c-0.6,0.6-1.6,0.7-2.1,0.2l-4-4c-0.5-0.5-1.3-0.5-1.9,0
			c-0.5,0.5-0.5,1.4,0,1.9l4,4c0.5,0.5,0.4,1.5-0.2,2.1c-0.6,0.6-1.6,0.7-2.1,0.2L27,50.7c0.7-1,0.5-2.6-0.5-3.6
			c-1.2-1.2-2.9-1.3-4-0.2c1-1,0.9-2.8-0.2-4c-1.2-1.2-2.9-1.3-4-0.2c1-1,0.9-2.8-0.2-4c-1.2-1.2-2.9-1.3-4-0.2c1-1,0.9-2.8-0.2-4
			c-1.1-1.1-2.7-1.2-3.7-0.4l-7.9-7.9c-0.5-0.5-1.4-0.5-1.9,0c-0.5,0.5-0.5,1.4,0,1.9L8.2,36l-2.3,2.3c-1,1-0.9,2.8,0.2,4
			c1.2,1.2,2.9,1.3,4,0.2c-1,1-0.9,2.8,0.2,4c1.2,1.2,2.9,1.3,4,0.2c-1,1-0.9,2.8,0.2,4c1.2,1.2,2.9,1.3,4,0.2c-1,1-0.9,2.8,0.2,4
			c1.2,1.2,2.9,1.3,4,0.2l2.5-2.5l4.8,4.8c1.5,1.5,4.2,1.4,5.8-0.2c0.8-0.8,1.2-1.9,1.3-2.9c1-0.1,2.1-0.5,2.9-1.3
			c0.8-0.8,1.2-1.9,1.3-2.9c1-0.1,2.1-0.5,2.9-1.3C45,48,45.5,47,45.5,46c1-0.1,2.1-0.5,2.9-1.3c1.7-1.7,1.8-4.3,0.2-5.8l-2-2
			l8.4-8.4c0.5-0.5,0.5-1.3,0-1.9L42.9,14.4z M42.9,14.4"/>
		<path clip-path="url(#SVGID_2_)" d="M62.7,17.4L52,6.7c-1-1-2.7-1-3.7,0l-3.7,3.7c-1,1-1,2.7,0,3.7l10.7,10.7c1,1,2.7,1,3.7,0
			l3.7-3.7C63.7,20.1,63.7,18.4,62.7,17.4L62.7,17.4z M57.1,22.8c-1.2,0-2.2-1-2.2-2.2c0-1.2,1-2.2,2.2-2.2c1.2,0,2.2,1,2.2,2.2
			C59.3,21.8,58.3,22.8,57.1,22.8L57.1,22.8z M57.1,22.8"/>
	</g>
</g>
</svg>
