<?xml version="1.0" encoding="utf-8"?>
<!-- Generator: Adobe Illustrator 19.1.0, SVG Export Plug-In . SVG Version: 6.00 Build 0)  -->
<svg version="1.1" id="Layer_1" xmlns="http://www.w3.org/2000/svg" xmlns:xlink="http://www.w3.org/1999/xlink" x="0px" y="0px"
	 width="60px" height="65.1px" viewBox="-7 5.9 60 65.1" enable-background="new -7 5.9 60 65.1" xml:space="preserve">
<g>
	<path d="M29.6,20.3H38V30l4.2-6.6v-5.5c0-0.3-0.1-0.7-0.4-0.9L31.1,6.3c-0.3-0.3-0.6-0.4-0.9-0.4H-3.2C-5.3,5.9-7,7.6-7,9.7v57.5
		c0,2.1,1.7,3.8,3.8,3.8h41.6c2.1,0,3.8-1.7,3.8-3.8V50.9L38,57.4v9.4H-2.8V10.1H28v8.6C28.1,19.6,28.8,20.3,29.6,20.3L29.6,20.3z"
		/>
	<path d="M46.9,36.2l-1.7-1.1c-0.3-0.2-0.7-0.1-0.9,0.2l-9.4,14.4l-1.8-1.2l9.4-14.4c0.2-0.3,0.1-0.7-0.2-0.9l-1.7-1.1
		c-0.3-0.2-0.7-0.1-0.9,0.2l-14,21.5c-0.1,0.1-0.1,0.2-0.1,0.3l-0.4,7.5c0,0.2,0.1,0.4,0.3,0.5s0.4,0.1,0.6,0l6.7-3.3
		c0.1,0,0.2-0.1,0.2-0.2L47.1,37C47.3,36.7,47.2,36.3,46.9,36.2L46.9,36.2z"/>
	<path d="M52.7,27.3l-6.3-4.1c-0.3-0.2-0.7-0.1-0.9,0.2l-4.2,6.5c-0.2,0.3-0.1,0.7,0.2,0.9l6.3,4.1c0.3,0.2,0.7,0.1,0.9-0.2l4.3-6.5
		C53.1,27.9,53,27.5,52.7,27.3L52.7,27.3z"/>
	<path d="M3.4,19.5h12.1c0.9,0,1.6-0.7,1.6-1.6c0-0.9-0.7-1.6-1.6-1.6H3.4c-0.9,0-1.6,0.7-1.6,1.6C1.8,18.8,2.5,19.5,3.4,19.5
		L3.4,19.5z"/>
	<path d="M26.3,25.7c0-0.9-0.7-1.6-1.6-1.6H3.4c-0.9,0-1.6,0.7-1.6,1.6s0.7,1.6,1.6,1.6h21.4C25.6,27.2,26.3,26.5,26.3,25.7
		L26.3,25.7z"/>
	<path d="M3.4,35h12.1c0.9,0,1.6-0.7,1.6-1.6s-0.7-1.6-1.6-1.6H3.4c-0.9,0-1.6,0.7-1.6,1.6C1.8,34.3,2.5,35,3.4,35L3.4,35z"/>
	<path d="M3.4,42.7h12.1c0.9,0,1.6-0.7,1.6-1.6c0-0.9-0.7-1.6-1.6-1.6H3.4c-0.9,0-1.6,0.7-1.6,1.6C1.8,42,2.5,42.7,3.4,42.7
		L3.4,42.7z"/>
	<path d="M4,62.8c-0.3,0.4,0.2,0.9,0.5,0.5c1-1.2,1.8-2.6,2.4-4c0.4,0.3,1,0.2,1.4,0c0.6-0.3,1.2-0.7,1.7-1.2
		c0.3-0.3,0.7-0.7,1.1-0.7c0.3,0,0.8,0.2,1.1,0.3c0.8,0.1,1.8-0.1,2.7-0.3c0.8-0.2,1.7-0.5,2.1-1.2c0.3-0.4-0.4-0.8-0.7-0.4
		c-0.4,0.6-1.3,0.7-1.9,0.9c-0.5,0.2-1.4,0.4-2.1,0.2c-0.6-0.1-1-0.4-1.6-0.2c-0.8,0.3-1.3,1-2,1.5c-0.3,0.2-0.6,0.4-1,0.5
		c-0.2,0-0.3,0-0.4-0.1c0.1-0.2,0.2-0.4,0.2-0.6c0.8-1.9,1.1-3.8,1.4-5.8c0.2-1,0.5-2.6-1-2.7c-1.3-0.1-2.4,1.8-2.8,2.7
		S4.7,54.1,4.7,55c0,0.6,0.2,1.2,0.4,1.8C3.9,57,2.8,58.2,3,59.5c0.2,1.2,1.7,0.6,2.3,0.1s0.8-1,0.8-1.6c0.1,0.2,0.2,0.4,0.3,0.6
		C5.8,60.1,5,61.5,4,62.8L4,62.8z M5.4,58.4c-0.1,0.5-0.8,1-1.3,1.1c-0.4,0-0.2-0.7-0.1-0.8c0.2-0.5,0.9-0.8,1.4-1
		C5.5,57.9,5.5,58.1,5.4,58.4L5.4,58.4z M6.1,56.9c-0.1-0.6-0.3-1.2-0.4-1.8c-0.1-1.1,0.1-2.2,0.6-3.2c0.3-0.6,1-1.5,1.7-1.6
		c0.6-0.1,0.3,1.5,0.2,1.8C8,53.1,7.9,54,7.7,55c-0.2,0.9-0.5,1.8-0.8,2.7C6.7,57.3,6.5,57,6.1,56.9L6.1,56.9z"/>
</g>
</svg>
