<?xml version="1.0" encoding="utf-8"?>
<!-- Generator: Adobe Illustrator 18.1.0, SVG Export Plug-In . SVG Version: 6.00 Build 0)  -->
<svg version="1.1" id="Layer_1" xmlns="http://www.w3.org/2000/svg" xmlns:xlink="http://www.w3.org/1999/xlink" x="0px" y="0px"
	 viewBox="0 0 64 64" enable-background="new 0 0 64 64" xml:space="preserve">
<g>
	<path d="M35.7,28.5c0,0.7-0.6,1.3-1.3,1.3s-1.3-0.6-1.3-1.3c0-0.7,0.6-1.3,1.3-1.3S35.7,27.8,35.7,28.5L35.7,28.5z M35.7,28.5"/>
	<path d="M43.6,19.4c0,1-0.8,1.7-1.7,1.7c-1,0-1.7-0.8-1.7-1.7c0-1,0.8-1.7,1.7-1.7C42.8,17.6,43.6,18.4,43.6,19.4L43.6,19.4z
		 M43.6,19.4"/>
	<g>
		<path d="M29.2,17.1c0,1.3-1,2.3-2.3,2.3c-1.3,0-2.3-1-2.3-2.3c0-1.3,1-2.3,2.3-2.3C28.1,14.8,29.2,15.8,29.2,17.1L29.2,17.1z
			 M29.2,17.1"/>
		<path d="M51.1,9.5C48.3,6,41,0,31.4,0C25,0,19,2.7,13.3,7.9c0,0,0,0,0,0c-5.5,5.6-4.7,10.8-3.8,17.4c0.1,0.4,0.1,0.8,0.2,1.2
			c0.2,1.1-0.8,2.8-1.8,4.5c-1.4,2.5-2.9,5.1-1.1,6.3c3.1,2.1,3.6,6.2,4.1,10.2c0.1,0.9,0.2,1.9,0.4,2.9c0.3,1.6,1.7,2.4,4.2,2.4
			c1.1,0,2.4-0.1,3.5-0.3c1-0.1,2-0.2,2.7-0.2c0.4,0,0.8,0,1,0.1c3.1,0.8,5.8,7.1,6.8,10.8c0.1,0.3,0.3,0.5,0.6,0.6
			c0.1,0,0.2,0,0.2,0c0.2,0,0.4-0.1,0.6-0.2l15.8-15.1c0.2-0.2,0.3-0.6,0.2-0.9c-1.4-4.4,1.5-8.6,4.1-12.4c1.1-1.6,2.2-3.2,2.9-4.7
			C57.5,23.5,55.1,14.4,51.1,9.5L51.1,9.5z M29.2,24.4l-0.6-0.9c-0.4,0.1-0.9,0.2-1.3,0.2L27,24.8c-0.1,0.4-0.5,0.6-0.9,0.5
			l-2.3-0.5c-0.4-0.1-0.6-0.5-0.5-0.9l0.2-1.1c-0.4-0.2-0.8-0.5-1.1-0.8l-0.9,0.6c-0.3,0.2-0.8,0.1-1-0.2l-1.2-2
			c-0.2-0.3-0.1-0.8,0.2-1l0.9-0.6c-0.1-0.4-0.2-0.9-0.2-1.3l-1.1-0.2c-0.4-0.1-0.6-0.5-0.5-0.9l0.5-2.3c0.1-0.4,0.5-0.6,0.9-0.5
			l1.1,0.2c0.2-0.4,0.5-0.8,0.8-1.1l-0.6-0.9c-0.2-0.3-0.1-0.8,0.2-1l2-1.2c0.3-0.2,0.8-0.1,1,0.2l0.6,0.9c0.4-0.1,0.9-0.2,1.3-0.2
			l0.2-1.1c0.1-0.4,0.5-0.6,0.9-0.5l2.3,0.5c0.4,0.1,0.6,0.5,0.5,0.9l-0.2,1.1c0.4,0.2,0.8,0.5,1.1,0.8l0.9-0.6
			c0.3-0.2,0.8-0.1,1,0.2l1.2,2c0.2,0.3,0.1,0.8-0.2,1l-0.9,0.6c0.1,0.4,0.2,0.9,0.2,1.3l1.1,0.2c0.4,0.1,0.6,0.5,0.5,0.9l-0.5,2.3
			c-0.1,0.4-0.5,0.6-0.9,0.5l-1.1-0.2c-0.2,0.4-0.5,0.8-0.8,1.1l0.6,0.9c0.2,0.3,0.1,0.8-0.2,1l-2,1.2
			C29.9,24.8,29.4,24.7,29.2,24.4L29.2,24.4z M38.7,28.5l-0.6,0.2c0,0.3,0,0.5-0.1,0.8l0.5,0.3c0.2,0.1,0.3,0.4,0.1,0.6L38,31.4
			c-0.1,0.2-0.4,0.3-0.6,0.1l-0.5-0.3c-0.2,0.2-0.4,0.3-0.6,0.5l0.2,0.6c0.1,0.2-0.1,0.4-0.3,0.5l-1.3,0.3c-0.2,0.1-0.4-0.1-0.5-0.3
			l-0.2-0.6c-0.3,0-0.5,0-0.8-0.1l-0.3,0.5c-0.1,0.2-0.4,0.3-0.6,0.1l-1.1-0.7c-0.2-0.1-0.3-0.4-0.1-0.6l0.3-0.5
			c-0.2-0.2-0.3-0.4-0.5-0.6l-0.6,0.2c-0.2,0.1-0.4-0.1-0.5-0.3l-0.3-1.3c-0.1-0.2,0.1-0.4,0.3-0.5l0.6-0.2c0-0.3,0-0.5,0.1-0.8
			l-0.5-0.3C30,27.3,30,27,30.1,26.8l0.7-1.1c0.1-0.2,0.4-0.3,0.6-0.1l0.5,0.3c0.2-0.2,0.4-0.3,0.6-0.5l-0.2-0.6
			c-0.1-0.2,0.1-0.4,0.3-0.5l1.3-0.3c0.2-0.1,0.4,0.1,0.5,0.3l0.2,0.6c0.3,0,0.5,0,0.8,0.1l0.3-0.5c0.1-0.2,0.4-0.3,0.6-0.1l1.1,0.7
			c0.2,0.1,0.3,0.4,0.1,0.6L37.1,26c0.2,0.2,0.3,0.4,0.5,0.6l0.6-0.2c0.2-0.1,0.4,0.1,0.5,0.3L39,28C39,28.2,38.9,28.4,38.7,28.5
			L38.7,28.5z M47.5,19.3l-0.8,0.2c0,0.3-0.1,0.7-0.1,1l0.7,0.4c0.3,0.1,0.3,0.5,0.2,0.7l-0.9,1.5c-0.1,0.3-0.5,0.3-0.7,0.2
			l-0.7-0.4c-0.2,0.2-0.5,0.4-0.8,0.6l0.2,0.8c0.1,0.3-0.1,0.6-0.4,0.7l-1.7,0.4c-0.3,0.1-0.6-0.1-0.7-0.4l-0.2-0.8
			c-0.3,0-0.7-0.1-1-0.1l-0.4,0.7c-0.1,0.3-0.5,0.3-0.7,0.2l-1.5-0.9c-0.3-0.1-0.3-0.5-0.2-0.7l0.4-0.7c-0.2-0.2-0.4-0.5-0.6-0.8
			l-0.8,0.2c-0.3,0.1-0.6-0.1-0.7-0.4l-0.4-1.7c-0.1-0.3,0.1-0.6,0.4-0.7l0.8-0.2c0-0.3,0.1-0.7,0.1-1l-0.7-0.4
			c-0.3-0.1-0.3-0.5-0.2-0.7l0.9-1.5c0.1-0.3,0.5-0.3,0.7-0.2l0.7,0.4c0.2-0.2,0.5-0.4,0.8-0.6l-0.2-0.8c-0.1-0.3,0.1-0.6,0.4-0.7
			l1.7-0.4c0.3-0.1,0.6,0.1,0.7,0.4l0.2,0.8c0.3,0,0.7,0.1,1,0.1l0.4-0.7c0.1-0.3,0.5-0.3,0.7-0.2l1.5,0.9c0.3,0.1,0.3,0.5,0.2,0.7
			L45.4,16c0.2,0.2,0.4,0.5,0.6,0.8l0.8-0.2c0.3-0.1,0.6,0.1,0.7,0.4l0.4,1.7C48,18.9,47.8,19.2,47.5,19.3L47.5,19.3z M47.5,19.3"/>
	</g>
</g>
</svg>
