<?xml version="1.0" encoding="utf-8"?>
<!-- Generator: Adobe Illustrator 18.1.0, SVG Export Plug-In . SVG Version: 6.00 Build 0)  -->
<svg version="1.1" id="Layer_1" xmlns="http://www.w3.org/2000/svg" xmlns:xlink="http://www.w3.org/1999/xlink" x="0px" y="0px"
	 viewBox="0 0 64 64" enable-background="new 0 0 64 64" xml:space="preserve">
<g>
	<path fill="#2D2D2D" d="M53.4,0H10C8.9,0,7.9,0.9,7.9,2.1v59.8C7.9,63,8.9,64,10,64h32.2c0.5,0,1-0.2,1.4-0.5l11.2-10
		c0.4-0.4,0.7-1,0.7-1.6V2.1C55.5,0.9,54.6,0,53.4,0L53.4,0z M51.3,50.7h-9.8v9l-0.1,0.1H12.1V4.2h39.2V50.7z M51.3,50.7"/>
	<path fill="#2D2D2D" d="M35.6,37.4H24.9c-0.6,0-1.1,0.5-1.1,1.1v10.7c0,0.6,0.5,1.1,1.1,1.1h10.7c0.6,0,1.1-0.5,1.1-1.1V38.5
		C36.7,37.9,36.2,37.4,35.6,37.4L35.6,37.4z M34.5,48H26v-8.5h8.5V48z M34.5,48"/>
	<path fill="#2D2D2D" d="M36.6,21.1L36.6,21.1c0-0.6-0.4-1-1-1H24.9c-0.5,0-1,0.4-1,1v10.7c0,0.5,0.4,1,1,1h10.7c0.5,0,1-0.4,1-1
		v-3.8l-1.7,1.7c-0.1,0.1-0.2,0.1-0.2,0.2v1h-8.7V22h8.7v1L36.6,21.1z M36.6,21.1"/>
	<path fill="#2D2D2D" d="M38.5,20.5l-5.4,5.4l-2.1-2.1c-0.6-0.6-1.5-0.6-2,0c-0.6,0.6-0.6,1.5,0,2l3.1,3.1c0.3,0.3,0.6,0.4,1,0.4
		c0.4,0,0.7-0.1,1-0.4l6.4-6.4c0.6-0.6,0.6-1.5,0-2C40,19.9,39.1,19.9,38.5,20.5L38.5,20.5z M38.5,20.5"/>
	<rect x="17.7" y="10.2" fill="#2D2D2D" width="28" height="2.9"/>
</g>
</svg>
