<?xml version="1.0" encoding="utf-8"?>
<!-- Generator: Adobe Illustrator 18.1.0, SVG Export Plug-In . SVG Version: 6.00 Build 0)  -->
<svg version="1.1" id="Layer_1" xmlns="http://www.w3.org/2000/svg" xmlns:xlink="http://www.w3.org/1999/xlink" x="0px" y="0px"
	 viewBox="0 0 64 64" enable-background="new 0 0 64 64" xml:space="preserve">
<g>
	<path d="M15.2,49.4c-0.6-4.3-1.1-8.6-1.6-12.8c-0.1-1.1-0.1-2.1,1.1-2.7c0.3-0.2,0.6-0.9,0.5-1.1C15,32.3,14.5,32,14,32
		c-0.3,0-0.7,0.3-1.1,0.5c-0.4,0.2-0.8,0.5-1.3,0.6c-1.2,0.2-1.4,0.7-0.9,1.8c0.5,1,0.9,2,1.1,3c0.4,2.7,0.8,5.3,1,8
		c0.2,2.7,1.4,9.9-0.2,12.7c-0.3,0.3,0.2,0.9,0.5,1.2c0.2,0.2,0.8,0.2,0.9,0.1c0.6-0.6,1.3-1.1,2.2-0.7c0.1,0,0.2,0,0.3,0
		c0.8-0.3,0.6-0.8,0.4-1.4C16.5,56.5,15.4,50.6,15.2,49.4L15.2,49.4z M15.2,49.4"/>
	<path d="M52.4,33.1c-0.4-0.1-0.9-0.4-1.3-0.6c-0.4-0.2-0.8-0.5-1.1-0.5c-0.4,0.1-1,0.4-1.1,0.7c-0.1,0.3,0.2,1,0.5,1.1
		c1.2,0.6,1.2,1.6,1.1,2.7c-0.5,4.3-1,8.6-1.6,12.8c-0.2,1.2-1.4,7.1-1.9,8.3c-0.2,0.6-0.4,1.2,0.4,1.4c0.1,0,0.3,0.1,0.3,0.1
		c0.9-0.4,1.6,0,2.2,0.7c0.2,0.2,0.8,0.1,0.9-0.1c0.3-0.3,0.7-0.8,0.5-1.2c-1.6-2.8-0.2-10-0.1-12.7c0.2-2.7,0.6-5.4,1-8
		c0.2-1.1,0.6-2.1,1.1-3C53.8,33.7,53.6,33.2,52.4,33.1L52.4,33.1z M52.4,33.1"/>
	<path d="M61.2,0H2.8C1.3,0,0,1.3,0,2.8v58.3C0,62.7,1.3,64,2.8,64h58.3c1.6,0,2.8-1.3,2.8-2.8V2.8C64,1.3,62.7,0,61.2,0L61.2,0z
		 M34.6,30.7c1,1,2.4,1.8,4.1,2.4c1,0.4,2,0.6,3,0.7c0.8,1.1,1.2,2.1,0.8,2.7c-0.3,0.5-1.1,0.7-2.1,0.6c-1.3-0.1-2.8-0.6-4.2-1.5
		c-1-0.6-1.9-1.3-2.5-2.1C34.4,32.5,34.7,31.5,34.6,30.7L34.6,30.7z M36.1,15.4c0.7,0.5,1.4,0.9,2.3,1.2c0.8,0.3,1.6,0.5,2.3,0.5
		c0.1,0.1,0.1,0.2,0.2,0.3c0.1,0.2,0.3,0.3,0.6,0.3c0,0,0,0,0,0c0.2,0,0.5-0.1,0.6-0.3l0.2-0.4c0.2,0,0.4-0.1,0.6-0.1
		c2,1.2,2.9,2.6,2.6,3.4c-0.2,0.5-0.9,0.9-1.9,1c-1.3,0.2-2.8-0.1-4.4-0.6c-3.1-1.1-5-3.2-4.6-4.3C34.8,15.9,35.4,15.5,36.1,15.4
		L36.1,15.4z M35.5,12.1c0.2-0.5,1-0.8,2-0.8c0.3,0,0.6,0,0.9,0.1c0.3,1.4,1,3,1.6,4.2c-0.4-0.1-0.7-0.2-1.1-0.3
		c-1.1-0.4-2.1-1-2.8-1.7C35.6,13,35.3,12.5,35.5,12.1L35.5,12.1z M45.6,25.6c-0.2,0.5-0.9,0.9-1.9,1c-1.3,0.2-2.8-0.1-4.4-0.6
		c-3.1-1.1-5-3.2-4.6-4.3c0.1-0.4,0.5-0.6,0.9-0.8c0.9,0.6,1.9,1.1,3,1.5c1.4,0.5,2.9,0.8,4.2,0.8c0.4,0,0.7,0,1.1-0.1
		c0.1,0,0.2,0,0.3-0.1C45.3,24,45.9,24.9,45.6,25.6L45.6,25.6z M45.6,31c-0.2,0.5-0.9,0.9-1.9,1c-1.3,0.2-2.8-0.1-4.4-0.6
		c-3.1-1.1-5-3.2-4.6-4.3c0.1-0.3,0.5-0.6,1-0.8c0.8,0.6,1.8,1.1,2.9,1.5c1.4,0.5,2.9,0.8,4.2,0.8c0.4,0,0.7,0,1.1-0.1
		c0.1,0,0.1,0,0.2,0C45.3,29.3,45.9,30.3,45.6,31L45.6,31z M36,59c0.5-0.5,0.9-1.2,1.5-1.3c0.7-0.1,0.7,0.3,1.4,0.8
		c-0.9,0.6-1.5,1-2.1,1.2C36.6,59.7,36.3,59.2,36,59L36,59z M37.3,55.8c-2.4,2.9-8.3,1.5-9.6-0.3c-1-1.2-0.9-2.7,0.2-3.5
		c0.8-0.6,1.5-0.7,2.1,0.3c0.5,0.9,1.3,1.7,2,2.4c0.2,0.2,1,0.2,1.3,0c0.7-0.6,1.3-1.5,2-2.2c0.4-0.4,1.1-1,1.3-0.8
		c0.6,0.3,1.4,0.9,1.4,1.4C38.1,54,37.9,55.3,37.3,55.8L37.3,55.8z M27.8,57.7c0.5,0,1.2,0.7,2,1.2c-0.6,0.4-1,0.9-1.1,0.8
		c-0.6-0.3-1.2-0.7-1.7-1.1C27.3,58.2,27.2,57.7,27.8,57.7L27.8,57.7z M30.5,60.5c1.5-1,2.9-1,4.4,0c0.5,0.3,1,0.5,1.4,0.7h-7.2
		C29.5,61,30,60.8,30.5,60.5L30.5,60.5z M38,61.2c0.9-0.3,1.6-1.2,2-2.6c0.3-0.8,0.3-3,1.6-3.5c1.9-1.7,4.8-4,4.2-6.4
		c-0.3-0.7-0.6-1.9-1.2-2.9c-1.8-2.8-5-3.2-7.5-1.1c-0.9,0.8-1.7,1.6-2.5,2.5c-1.4,1.6-2.5,1.6-3.9,0c-0.8-0.9-1.6-1.7-2.5-2.5
		c-2.6-2.2-5.9-1.6-7.7,1.3c-1.5,2.4-1.2,4.2,0.7,6.3c0.6,0.6,1,1.5,1.4,2.3c2,1.4,2.4,2.8,2.7,4c0.4,1.4,1.1,2.4,2,2.7H2.8V2.8
		h27.9c-0.2,0.2-0.4,0.4-0.4,0.7c0,0.3,0.2,0.6,0.5,0.8c0.2,0.2,2.8,0.1,2.8,0.1c0.1,0,0.1,0,0.1,0.1V5c0,0.1,0,0.1-0.1,0.1h-2.2
		c-0.5,0-0.9,0.4-0.9,0.9c0,0.5,0.4,0.8,0.9,0.8h1.6c0,0,0,0,0,0v0.6h-1.2c-0.4,0-0.7,0.2-0.8,0.6c-0.7,0.3-1.2,1-1.2,1.8v0.6
		c-0.5-0.2-1.2-0.4-2-0.4c-0.5,0-1.1,0.1-1.7,0.2c0-0.5,0-1-0.2-1.3c-1.1-2.3-5.5-3.4-6-3.5c0,0-0.1,0-0.1,0c0,0-0.2,0-0.4,0
		c-0.8,0-2.2,0.2-2.9,1.2c-0.5,0.7-0.6,1.7-0.1,3c0,0,0,0.1,0.1,0.1c-0.1-0.1-0.2-0.1-0.3-0.2c-0.3-0.1-0.8,0.2-1.2,0.3
		c-0.5,0.1-0.9,0.4-1.4,0.3c-1.3-0.1-1.5,0.4-1.2,1.6c0.3,1,0.5,2.1,0.5,3.2c-0.1,2.7-0.2,5.4-0.6,8c-0.3,2.6-0.2,5.2-2.3,7.6
		c-0.3,0.3,0,0.9,0.2,1.2c0.1,0.2,0.7,0.4,0.9,0.3c0.8-0.5,1.5-0.8,2.3-0.2c0.1,0,0.2,0,0.3,0c0.8-0.1,0.7-0.7,0.6-1.3
		c-0.2-1.2-0.5-2.5-0.4-3.7c0.2-4.3,0.6-8.6,0.9-12.9c0.1-1.1,0.3-2.1,1.6-2.5c0.3-0.1,0.8-0.7,0.7-1c0,0,0,0,0,0l1.9,2.1l1.4,2.2
		c0,0.3,0,0.5,0.1,0.8c0,0.1,0.1,0.2,0.2,0.3c-2.2,1.5-3.3,3.5-2.7,5.1c0.2,0.6,0.6,1.1,1.2,1.4c-1.2,1.3-1.7,2.7-1.2,3.9
		c0.2,0.6,0.6,1.1,1.2,1.5c-1.2,1.3-1.7,2.7-1.2,3.9c0.4,1.2,1.6,2,3.4,2.2c0,0,0,0,0,0c-0.7,1.4-0.8,2.7-0.2,3.7
		c0.6,1,1.7,1.5,3.3,1.5c0.2,0,0.4,0,0.5,0c1.6-0.1,3.3-0.7,5-1.7c0.4-0.2,0.8-0.5,1.1-0.8c0,0,0,0,0,0h3.1c0,0,0,0,0,0
		c0.1,0.1,0.3,0.2,0.4,0.3c0,0.1,0,0.1,0,0.2v0.4c0,0.3-0.2,0.5-0.5,0.5h-3.1c-0.5,0-0.9,0.4-0.9,0.9c0,0.2,0.1,0.5,0.3,0.6
		c0.1,0.3,0.4,0.5,0.8,0.5H34c0.2,0,0.4,0.2,0.4,0.4v0.3c0,0.2-0.2,0.3-0.4,0.3h-2.7c-0.5,0-0.9,0.4-0.9,0.9c0,0.3,0.2,0.6,0.5,0.8
		c0.2,0.2,0.4,0.3,0.7,0.3h2.2c0.1,0,0.1,0,0.1,0.1v0.3c0,0.1,0,0.1-0.1,0.1h-2.2c-0.5,0-0.8,0.4-0.8,0.9s0.4,0.9,0.8,0.9h1.6
		c0,0,0,0,0,0v0.6h-1.2c-0.5,0-0.9,0.4-0.9,0.9c0,0.5,0.4,0.9,0.9,0.9h1.4c0.8,0,1.5-0.7,1.5-1.5v-0.8c0-0.1,0-0.2-0.1-0.4
		c0.5-0.3,0.8-0.9,0.8-1.5v-0.3c0-0.3-0.1-0.6-0.2-0.8c0.4-0.4,0.7-0.9,0.7-1.6v-0.3c0-0.4-0.1-0.9-0.4-1.2c0.3-0.3,0.6-0.7,0.7-1.2
		c1.3,0.7,2.7,1.1,4,1.2c0.2,0,0.4,0,0.5,0c1.5,0,2.7-0.5,3.3-1.5c0.6-1,0.5-2.3-0.2-3.7c0,0,0,0,0,0c1.8-0.2,3-1,3.4-2.2
		c0.4-1.2,0-2.6-1.2-3.9c0.6-0.4,1-0.9,1.2-1.5c0.4-1.2,0-2.6-1.2-3.9c0.5-0.4,0.9-0.9,1.2-1.4c0.6-1.6-0.5-3.6-2.7-5.1
		c0.1-0.1,0.1-0.2,0.2-0.3c0.2-0.6,0.1-1.2-0.2-1.9l0.7-1.1l1.6-1.8c0.1,0.3,0.4,0.7,0.7,0.8c1.3,0.4,1.5,1.3,1.6,2.5
		c0.3,4.3,0.7,8.6,0.9,12.9c0.1,1.2-0.3,2.5-0.4,3.7c-0.1,0.6-0.2,1.2,0.6,1.3c0.1,0,0.3,0,0.3,0c0.8-0.6,1.6-0.3,2.3,0.2
		c0.2,0.1,0.8-0.1,0.9-0.3c0.2-0.4,0.5-1,0.2-1.2c-2.1-2.4-2-5-2.3-7.7c-0.3-2.7-0.5-5.4-0.6-8c0-1.1,0.2-2.2,0.5-3.2
		c0.3-1.2,0.1-1.7-1.2-1.6c-0.5,0-0.9-0.2-1.4-0.3c-0.4-0.1-0.8-0.4-1.2-0.3c0.4-1.2,0.4-2.2-0.1-2.9c-0.7-1-2.1-1.2-2.9-1.2
		c-0.2,0-0.4,0-0.4,0c0,0-0.1,0-0.1,0c-0.5,0.1-4.9,1.2-6,3.5c-0.2,0.3-0.2,0.7-0.2,1.2c-0.2,0-0.5,0-0.7,0c-0.8,0-1.6,0.1-2.1,0.4
		V9.7c0-0.6-0.3-1.1-0.7-1.5c0.1-0.2,0.2-0.4,0.2-0.6V6.8c0-0.1,0-0.2-0.1-0.4c0.5-0.3,0.7-0.9,0.7-1.5V4.7c0-0.2,0.1-1.5-0.9-1.9
		h26.6l0,58.3H38z M26.9,16.5c0.8-0.3,1.6-0.7,2.3-1.2c0.7,0.2,1.3,0.6,1.5,1c0.4,1.1-1.5,3.2-4.6,4.3c-1.5,0.5-3.1,0.8-4.4,0.6
		c-1-0.1-1.7-0.5-1.9-1c-0.2-0.7,0.5-2,2.3-3.2l0.2,0.3c0.1,0.2,0.4,0.3,0.6,0.3c0,0,0,0,0,0c0.2,0,0.5-0.1,0.6-0.3
		c0-0.1,0.1-0.2,0.2-0.3c0.1,0,0.2,0,0.3,0C24.8,17.1,25.8,16.9,26.9,16.5L26.9,16.5z M24.3,15.7c0.6-1.2,1.3-2.7,1.6-4.1
		c0.7-0.2,1.3-0.3,1.9-0.3c1.1,0,1.9,0.3,2,0.8c0.1,0.4-0.1,0.9-0.6,1.5c-0.6,0.7-1.6,1.3-2.8,1.7C25.7,15.5,25,15.7,24.3,15.7
		L24.3,15.7z M21.1,23.1c0.1,0,0.2,0,0.3,0.1c0.3,0,0.7,0.1,1.1,0.1c1.3,0,2.7-0.3,4.2-0.8c1.1-0.4,2.2-0.9,3-1.5
		c0.4,0.2,0.8,0.4,0.9,0.8c0.4,1.1-1.5,3.2-4.6,4.3c-1.5,0.5-3.1,0.8-4.4,0.6c-1-0.1-1.7-0.5-1.9-1C19.4,24.9,20,24,21.1,23.1
		L21.1,23.1z M21.1,28.4c0.1,0,0.1,0,0.2,0c0.3,0,0.7,0.1,1.1,0.1c1.3,0,2.7-0.3,4.2-0.8c1.1-0.4,2.1-0.9,2.9-1.5
		c0.5,0.2,0.9,0.5,1,0.8c0.4,1.1-1.5,3.2-4.6,4.3c-1.5,0.5-3.1,0.8-4.4,0.6c-1-0.1-1.7-0.5-1.9-1C19.4,30.3,20,29.3,21.1,28.4
		L21.1,28.4z M23.5,33.8c1-0.1,2-0.3,3-0.7c1.7-0.6,3.1-1.5,4.1-2.4c-0.1,0.9,0.2,1.8,0.8,2.9c-0.7,0.8-1.5,1.5-2.5,2.1
		c-1.4,0.8-2.9,1.4-4.2,1.5c-1,0.1-1.8-0.1-2.1-0.6C22.4,35.9,22.7,34.9,23.5,33.8L23.5,33.8z M23.5,33.8"/>
</g>
</svg>
