<?xml version="1.0" encoding="utf-8"?>
<!-- Generator: Adobe Illustrator 18.1.0, SVG Export Plug-In . SVG Version: 6.00 Build 0)  -->
<svg version="1.1" id="Layer_1" xmlns="http://www.w3.org/2000/svg" xmlns:xlink="http://www.w3.org/1999/xlink" x="0px" y="0px"
	 viewBox="0 0 64 64" enable-background="new 0 0 64 64" xml:space="preserve">
<g>
	<g>
		<path d="M64,9c0-1.6-0.6-3-1.7-4.1c-2.2-2.2-6-2.2-8.2,0L28.3,30.7c0,0,0,0,0,0L15.8,43.2c-0.3,0.3-0.5,0.7-0.5,1.1
			c0,0.2,0,0.3,0.1,0.4L0.3,59.9c-0.4,0.4-0.4,0.9-0.1,1.3c0.2,0.3,0.5,0.5,0.9,0.5c0.1,0,0.3,0,0.4-0.1l18.9-8
			c0.1-0.1,0.2-0.1,0.3-0.2l1.6-1.6c0.2,0.1,0.4,0.1,0.6,0.1c0.4,0,0.8-0.2,1.1-0.5l12.5-12.5l0,0l25.8-25.8C63.4,12,64,10.6,64,9
			L64,9z M19.2,44.3l1.5-1.5l0,1.5L19.2,44.3z M29.4,34.1l0,1.6l-1.6,0L29.4,34.1z M29.4,37.9l0,2.1h-2.2v-2.1L29.4,37.9z
			 M25.1,38.5V40h-1.6L25.1,38.5z M22.8,42.1h2.2v2.2l-2.3,0L22.8,42.1z M27.2,43.7v-1.6h1.6L27.2,43.7z M31.5,39.4l0-1.4l1.4,0
			L31.5,39.4z M19.3,51.7L5.7,57.5l10.8-10.8l3.9,3.9L19.3,51.7z M22.9,48L22.9,48l-0.1-1.6l1.6,0L22.9,48z M60,10.9L35.4,35.5l-3-3
			l-0.7-0.7L56.3,7.2c1-1,2.7-1,3.7,0c0.5,0.5,0.8,1.1,0.8,1.8C60.8,9.7,60.5,10.4,60,10.9L60,10.9z M60,10.9"/>
	</g>
</g>
</svg>
