<?xml version="1.0" encoding="utf-8"?>
<!-- Generator: Adobe Illustrator 19.1.0, SVG Export Plug-In . SVG Version: 6.00 Build 0)  -->
<svg version="1.1" id="Layer_1" xmlns="http://www.w3.org/2000/svg" xmlns:xlink="http://www.w3.org/1999/xlink" x="0px" y="0px"
	 width="71.1px" height="60px" viewBox="-1 8 71.1 60" enable-background="new -1 8 71.1 60" xml:space="preserve">
<g>
	<path d="M64,26.9H48.1V14.1c0-3.3-2.7-6.1-6.1-6.1H5c-3.3,0-6,2.7-6,6.1v22.3c0,3.3,2.7,6.1,6.1,6.1h3.6l4.5,6.1
		c0.3,0.4,0.8,0.6,1.3,0.6s0.9-0.3,1.3-0.6l4.5-6.1H21v12.8c0,3.3,2.7,6.1,6.1,6.1h21.7l4.5,6.1c0.3,0.4,0.8,0.6,1.3,0.6
		s0.9-0.3,1.3-0.6l4.5-6.1H64c3.3,0,6.1-2.7,6.1-6.1V33C70.1,29.6,67.4,26.9,64,26.9L64,26.9z M19.5,39.2c-0.5,0-0.9,0.3-1.3,0.6
		l-3.8,5l-3.8-5c-0.3-0.4-0.8-0.6-1.3-0.6H4.9C3.3,39.2,2,38,2,36.3V14.1c0-1.6,1.3-2.9,2.9-2.9h37c1.6,0,2.9,1.3,2.9,2.9v22.3
		c0,1.6-1.3,2.9-2.9,2.9L19.5,39.2L19.5,39.2z M67,55.2c0,1.6-1.3,2.9-2.9,2.9h-4.5c-0.5,0-0.9,0.3-1.3,0.6l-3.8,5l-3.8-5
		c-0.3-0.4-0.8-0.6-1.3-0.6H27.1c-1.6,0-2.9-1.3-2.9-2.9V42.4h17.9c1.2,0,2.3-0.3,3.2-0.9h12c0.9,0,1.5-0.7,1.5-1.5
		c0-0.9-0.7-1.5-1.5-1.5h-9.4c0.3-0.6,0.3-1.3,0.3-2.1v-6.2H64c1.6,0,2.9,1.3,2.9,2.9L67,55.2L67,55.2z M58.7,48.7
		c0,0.9-0.7,1.5-1.5,1.5H33.9c-0.9,0-1.5-0.7-1.5-1.5c0-0.9,0.7-1.5,1.5-1.5h23.3C58,47.2,58.7,47.9,58.7,48.7L58.7,48.7z M35,31.4
		H11.8c-0.9,0-1.5-0.7-1.5-1.5c0-0.9,0.7-1.5,1.5-1.5H35c0.9,0,1.5,0.7,1.5,1.5C36.7,30.7,35.9,31.4,35,31.4L35,31.4z M10.3,20.9
		c0-0.9,0.7-1.5,1.5-1.5h13.9c0.9,0,1.5,0.7,1.5,1.5c0,0.9-0.7,1.5-1.5,1.5H11.8C11,22.5,10.3,21.8,10.3,20.9L10.3,20.9z"/>
</g>
</svg>
