<?xml version="1.0" encoding="utf-8"?>
<!-- Generator: Adobe Illustrator 19.1.0, SVG Export Plug-In . SVG Version: 6.00 Build 0)  -->
<svg version="1.1" id="Layer_1" xmlns="http://www.w3.org/2000/svg" xmlns:xlink="http://www.w3.org/1999/xlink" x="0px" y="0px"
	 width="75px" height="75px" viewBox="0 0 75 75" enable-background="new 0 0 75 75" xml:space="preserve">
<g>
	<path d="M47.4,29.5c3.5-0.4,6.8,1.5,8.2,4.6c0.6,0.9,3.2,4,13.1,3.5L75,37V10.4c0-1.8-1.5-3.2-3.2-3.2h-9.5c-1.8,0-3.2,1.5-3.2,3.2
		v4.1c0,1.8-1.5,3.2-3.2,3.2H19.4c-1.8,0-3.2-1.5-3.2-3.2v-4.1c0-1.8-1.5-3.2-3.3-3.2H3.2C1.5,7.1,0,8.6,0,10.4v52.5L4.2,59
		c0-0.2,0.5-1,1.9-2.2c5.6-5.7,6.4-9.5,6.1-11.4c-0.1-0.4-0.1-0.7-0.2-1.1c0-0.1,0-0.1,0-0.1l0,0c-0.2-2.5,0.6-5.1,2.6-7
		c3.4-3,8.5-2.9,11.5,0.5c1,1.1,1.6,2.4,2,3.8c0.4,1.1,1.6,3.5,4.9,5.1c1.2,0.4,2.4,1.1,3.4,2.2c3,3.4,2.9,8.5-0.5,11.5
		c-2.6,2.4-6.4,2.8-9.4,1.2c-1.1-0.4-5-1.2-12.6,5L4.8,75h67c1.8,0,3.2-1.5,3.2-3.2V49l-3,0.4c-0.1,0.1-1,0.4-2.8,0.8
		c-8,1.2-10.8,3.9-11.8,5.4c-0.1,0.4-0.3,0.8-0.5,1c0,0.1,0,0.1,0,0.1l0,0c-1.2,2.2-3.5,3.8-6.2,4.1c-4.5,0.5-8.5-2.8-9-7.2
		c-0.1-1.5,0.1-2.9,0.6-4.3c0.4-1.1,0.7-3.8-0.9-7c-0.7-1.1-1.2-2.4-1.4-3.8C39.6,34,43,30,47.4,29.5L47.4,29.5z M35.6,41.5
		c-2.2,0.6-6.8-5.4-6.8-5.4c-3-3.4,5.6-6.9,7-5.7C37.4,31.4,37.9,40.9,35.6,41.5L35.6,41.5z"/>
	<path d="M55.4,3.2c0-1.8-1.5-3.2-3.2-3.2H23c-1.8,0-3.2,1.5-3.2,3.2V11c0,1.7,1.5,3.2,3.2,3.2h29.2c1.8,0,3.2-1.5,3.2-3.2V3.2H55.4
		z"/>
</g>
<g>
</g>
<g>
</g>
<g>
</g>
<g>
</g>
<g>
</g>
<g>
</g>
<g>
</g>
<g>
</g>
<g>
</g>
<g>
</g>
<g>
</g>
</svg>
