<?xml version="1.0" encoding="utf-8"?>
<!-- Generator: Adobe Illustrator 18.1.0, SVG Export Plug-In . SVG Version: 6.00 Build 0)  -->
<svg version="1.1" id="Layer_1" xmlns="http://www.w3.org/2000/svg" xmlns:xlink="http://www.w3.org/1999/xlink" x="0px" y="0px"
	 viewBox="0 0 64 64" enable-background="new 0 0 64 64" xml:space="preserve">
<g>
	<path d="M18,13h0.4V8.6h-6.5c-1.2,0-2.2,1-2.2,2.2v50.9c0,1.2,1,2.2,2.2,2.2h38.9c1.2,0,2.2-1,2.2-2.2V10.9c0-1.2-1-2.2-2.2-2.2
		h-6.5V13h0.4c0.8,0,1.5,0.7,1.5,1.5v20H42l-3.7-10.1c-0.3-0.9-1.6-1-2.1-0.1l-6.4,13.5l-4.2-7.4c-0.4-0.8-1.5-0.8-1.9,0l-2.3,4.1
		h-4.9v-20C16.5,13.6,17.2,13,18,13L18,13z M22.9,38c0.4,0,0.8-0.2,1-0.6l0.8-1.5l4.3,7.7c0.4,0.8,1.6,0.8,2-0.1L37,31.1l2.2,6.1
		c0.2,0.4,0.6,0.7,1,0.7h5.9v15.1c0,0.8-0.7,1.5-1.5,1.5H18c-0.8,0-1.5-0.7-1.5-1.5V38H22.9z M22.9,38"/>
	<path d="M21.1,7.2C21.1,7.4,21,7.6,21,7.9v4.6c0,1.2,1,2.2,2.2,2.2h16.2c1.2,0,2.2-1,2.2-2.2V7.9c0-0.2,0-0.4-0.1-0.7
		c-0.3-0.9-1.1-1.6-2.1-1.6h-2.8c0-0.1,0-0.2,0-0.4c0-0.3,0-0.6-0.1-0.9c-0.1-0.5-0.2-0.9-0.4-1.3c-0.8-1.8-2.7-3-4.8-3
		c-2.1,0-3.9,1.2-4.8,3c-0.2,0.4-0.3,0.8-0.4,1.3c-0.1,0.3-0.1,0.6-0.1,0.9c0,0.1,0,0.2,0,0.4h-2.8C22.2,5.6,21.4,6.3,21.1,7.2
		L21.1,7.2z M29.1,5.3c0-0.3,0.1-0.6,0.2-0.9c0.3-0.8,1.1-1.3,2-1.3c0.9,0,1.7,0.5,2,1.3c0.1,0.3,0.2,0.6,0.2,0.9c0,0.1,0,0.3,0,0.4
		c-0.1,0.7-0.5,1.3-1.1,1.6c-0.3,0.2-0.7,0.3-1,0.3c-0.4,0-0.7-0.1-1-0.3c-0.6-0.3-1-0.9-1.1-1.6C29.1,5.5,29.1,5.4,29.1,5.3
		L29.1,5.3z M29.1,5.3"/>
</g>
</svg>
