<?xml version="1.0" encoding="utf-8"?>
<!-- Generator: Adobe Illustrator 18.1.0, SVG Export Plug-In . SVG Version: 6.00 Build 0)  -->
<svg version="1.1" id="Layer_1" xmlns="http://www.w3.org/2000/svg" xmlns:xlink="http://www.w3.org/1999/xlink" x="0px" y="0px"
	 viewBox="0 0 64 64" enable-background="new 0 0 64 64" xml:space="preserve">
<g>
	<path d="M57.9,54.9L57.9,54.9c0,0-13.9-14.1-15.3-15.5c-0.9-0.2-5.8-2.4-5.9-6.5c2.1-2.4,5.2-4.8,9.7-4.8c0,0,0,0,0.1,0
		c2,0.1,4.1-0.6,5.8-2.1c0.1-0.1,0.4-0.4,0.4-0.4L64,11.3l-1.4-1.4L48.7,24.6L47.1,23L61.4,8.7l-1.2-1.2L45.8,21.8l-1.4-1.4
		L58.8,6.1l-1.3-1.3L43.1,19.2l-1.6-1.6L56.4,3.6l-1.2-1.2L41.5,13c0,0-0.5,0.4-0.7,0.6c-1.9,1.9-2.7,4.4-2.4,6.9
		c-0.2,3.1-1.2,5.4-2.5,7.2C10.4,2.7,0.8,5.4,0.8,5.4L0,6.2c0,0,17.1,17.2,27.7,27.8C24,37.7,6.1,55.6,6.1,55.6v0c0,0,0,0,0,0
		c-1.3,1.3-1.3,3.4,0,4.6c1.3,1.3,3.4,1.3,4.6,0c0,0,0,0,0,0h0c0,0,17.9-17.9,21.6-21.6c1.9,1.9,3.2,3.2,3.5,3.5
		c1.6,1.6,17.4,17.4,17.4,17.4h0c0,0,0,0,0,0c1.3,1.3,3.4,1.3,4.6,0C59.2,58.3,59.2,56.2,57.9,54.9C57.9,54.9,57.9,54.9,57.9,54.9
		L57.9,54.9z M57.9,54.9"/>
</g>
</svg>
