<?xml version="1.0" encoding="utf-8"?>
<!-- Generator: Adobe Illustrator 18.1.0, SVG Export Plug-In . SVG Version: 6.00 Build 0)  -->
<svg version="1.1" id="Layer_1" xmlns="http://www.w3.org/2000/svg" xmlns:xlink="http://www.w3.org/1999/xlink" x="0px" y="0px"
	 viewBox="0 0 64 64" enable-background="new 0 0 64 64" xml:space="preserve">
<g>
	<path d="M31.7,21.6c6,0,10.8-4.8,10.8-10.8c0-6-4.8-10.8-10.8-10.8c-6,0-10.8,4.8-10.8,10.8C20.9,16.8,25.7,21.6,31.7,21.6
		L31.7,21.6z M31.7,21.6"/>
	<path d="M39,24.2C39,24.3,39,24.3,39,24.2c-16.9-1.2-22.6,0.6-24.3,1.2c-8.5,2.4-8.9,8.6-9.1,9.7L5.7,51h0c0,0.1,0,0.1,0,0.2
		c0,0.5-0.1,1.2,0,2c0,0.1,0,0.1,0,0.1c0,0.1,0.1,0.2,0.1,0.4c0,0.4,0.1,0.8,0.2,1.2c0,0,0,0.1,0,0.1c0.2,0.5,0.4,0.9,0.8,1.2
		c0.7,0.7,1.8,1.2,2.9,1.2h7.5v5.3l27.3-0.1l0-27.6h3v24.4h0v0c0,2.5,2,4.6,4.6,4.6c2.5,0,4.5-2,4.5-4.6V36.7
		C55.7,24.9,39,24.2,39,24.2L39,24.2z M31.9,53.8c-0.2,0-0.3,0-0.4,0H13.3c-2.1,0-3.8-1.7-3.8-3.8c-0.6-5.8-0.9-18,5.6-20.7l0.2-0.1
		c0,0,4.3-2.5,23.2-1.1C47,56.7,31.9,53.8,31.9,53.8L31.9,53.8z M31.9,53.8"/>
	<path d="M28.7,32.7l-3.6,19h9.4c0,0,3.8-0.3,3.8-4.2c0,0,0.4-3.7-3.7-3.7h-2.9L28.7,32.7z M28.7,32.7"/>
</g>
</svg>
