<?xml version="1.0" encoding="utf-8"?>
<!-- Generator: Adobe Illustrator 18.1.0, SVG Export Plug-In . SVG Version: 6.00 Build 0)  -->
<svg version="1.1" id="Layer_1" xmlns="http://www.w3.org/2000/svg" xmlns:xlink="http://www.w3.org/1999/xlink" x="0px" y="0px"
	 viewBox="0 0 64 64" enable-background="new 0 0 64 64" xml:space="preserve">
<path d="M59.6,13.8H43.4V7c0-1.3-1.1-2.4-2.4-2.4H22.9c-1.3,0-2.4,1.1-2.4,2.4v6.8H4.4c-2.4,0-4.4,2-4.4,4.4v37.5
	C0,58.1,2,60,4.4,60h55.3c2.4,0,4.4-2,4.4-4.4V18.1C64,15.7,62,13.8,59.6,13.8z M25.3,9.3h13.4v4.4H25.3V9.3z M37,31.1
	c-0.3,2.7-1.5,5.9-4.7,5.9c-3.3,0-4.4-3.3-4.7-5.9c-0.4-3.3,1.2-5.8,4.7-5.8C35.8,25.3,37.4,27.8,37,31.1z M40,45.9
	c-0.8,0.3-1.7,0.5-2.6,0.7c-1.7,0.4-3.4,0.6-5.2,0.6c-1.7,0-3.5-0.3-5.2-0.6c-0.9-0.2-1.7-0.4-2.6-0.7c-0.7-0.2-1.1-0.4-1-1.2
	c0-1,0.2-2.1,0.3-3.1c0.2-1.2,0.5-3.1,1.6-3.9c0.6-0.5,1.4-0.6,2.1-0.9c0.3-0.1,0.7-0.3,1-0.4c1,1.1,2.3,1.6,3.8,1.6
	c1.5,0,2.8-0.6,3.8-1.6c0.3,0.2,0.6,0.3,1,0.4c0.7,0.3,1.5,0.4,2.1,0.9c1.1,0.8,1.4,2.6,1.6,3.9c0.2,1,0.3,2.1,0.3,3.1
	C41.1,45.5,40.7,45.7,40,45.9z"/>
</svg>
