<?xml version="1.0" encoding="utf-8"?>
<!-- Generator: Adobe Illustrator 18.1.0, SVG Export Plug-In . SVG Version: 6.00 Build 0)  -->
<svg version="1.1" id="Layer_1" xmlns="http://www.w3.org/2000/svg" xmlns:xlink="http://www.w3.org/1999/xlink" x="0px" y="0px"
	 viewBox="0 0 64 64" enable-background="new 0 0 64 64" xml:space="preserve">
<g>
	<path d="M19.9,19.8h-1c0,0-0.2,0-0.2-0.1v-1c0-0.5-0.4-0.9-0.9-0.9c-0.5,0-0.9,0.4-0.9,0.9v1c0,0.2-0.2,0.2-0.2,0.2h-1
		c-0.5,0-0.9,0.4-0.9,0.9c0,0.5,0.4,0.9,0.9,0.9h1c0,0,0.2,0,0.2,0.2v1c0,0.5,0.4,0.8,0.9,0.8c0.5,0,0.9-0.4,0.9-0.8v-1
		c0-0.2,0.2-0.2,0.2-0.2h1c0.5,0,0.9-0.4,0.9-0.9C20.7,20.2,20.4,19.8,19.9,19.8L19.9,19.8z M19.9,19.8"/>
	<path d="M20.8,48c-0.1-0.2-0.4-0.6-1.1-0.6c-0.4,0-0.9,0.1-1.4,0.2c-0.2,0-0.4,0.1-0.5,0.1c-0.1,0-0.3-0.1-0.5-0.1
		c-0.4-0.1-0.9-0.2-1.3-0.2c-0.7,0-1,0.4-1.1,0.6c-0.1,0.2-0.2,0.7,0.3,1.2c0.9,0.9,1.8,1.4,2.6,1.4c0.9,0,2.4-1.2,2.6-1.4
		C21,48.7,20.9,48.2,20.8,48L20.8,48z M20.8,48"/>
	<path d="M11.6,37.5c-1.5-0.4-2.3-0.1-2.9,0.1c-0.4,0.1-0.5,0.2-0.7,0.1c-0.5-0.1-1,0.1-1.1,0.6c-0.1,0.5,0.1,1,0.6,1.1
		c0.5,0.1,0.9,0.1,1.2,0.1c0.2-0.1,0.2,0.1,0.2,0.1c0.1,0.9,0.9,1.5,2,1.5c0.7,0,1.3-0.3,1.7-0.8c0.1-0.2,0.2-0.1,0.2-0.1
		c0.2,0.2,0.3,0.2,0.5,0.2c0.2,0,0.5-0.1,0.6-0.3c0.3-0.3,0.3-0.9,0-1.2C13.5,38.5,12.8,37.9,11.6,37.5L11.6,37.5z M11.6,37.5"/>
	<path d="M28.8,38.3c-0.1-0.5-0.6-0.7-1.1-0.6c-0.3,0.1-0.4,0-0.7-0.1c-0.6-0.2-1.4-0.5-2.9-0.1c-1.3,0.4-1.9,1-2.3,1.4
		c-0.3,0.3-0.4,0.9,0,1.2c0.2,0.2,0.4,0.3,0.6,0.3c0.2,0,0.3,0,0.5-0.2c0,0,0.1-0.1,0.2,0.1c0.4,0.5,1,0.7,1.7,0.7
		c1,0,1.9-0.6,2-1.5c0-0.1,0-0.2,0.2-0.2c0.4,0.1,0.7,0.1,1.3,0C28.7,39.3,29,38.8,28.8,38.3L28.8,38.3z M28.8,38.3"/>
	<path d="M32.2,26.7c-0.5-0.7-1.1-1.4-1.7-2.1c-0.1-0.1-0.4-0.4-0.2-0.8l0.7-3.1c0.2-1-0.4-2.1-1.3-2.5l-10.3-4.3
		c-0.4-0.2-0.9-0.2-1.4-0.2c-0.5,0-1,0.1-1.4,0.2L6.1,18.2c-1,0.4-1.6,1.5-1.3,2.5l0.7,3.4c0.1,0.3-0.1,0.6-0.2,0.7
		c-0.5,0.6-1,1.2-1.5,1.8C1.3,30.3,0,35.3,0,41.2c0,7.5,0.7,12.4,2.3,15.3c1.4,2.6,3.4,3.8,6.5,3.8c1.3,0,2.7-0.2,4.1-0.4
		c1.6-0.2,3.3-0.5,5-0.5c1.7,0,3.3,0.2,4.9,0.4c1.4,0.2,2.8,0.4,4.1,0.4c2.1,0,4.8-0.4,6.6-3.7c1.6-2.9,2.3-7.8,2.3-15.3
		C35.8,35.1,34.6,30.2,32.2,26.7L32.2,26.7z M6.8,19.8l10.5-4.3c0.2-0.1,0.4-0.1,0.7-0.1c0.3,0,0.5,0,0.7,0.1L29,19.8
		c0.2,0.1,0.3,0.3,0.3,0.5L28,26.2c0,0.2-0.2,0.3-0.4,0.3l-8.5-1.2c-0.3,0-0.8-0.1-1.2-0.1s-0.9,0-1.2,0.1l-8.5,1.2
		c-0.2,0-0.3-0.1-0.4-0.3l-1.2-5.8C6.4,20.2,6.6,19.9,6.8,19.8L6.8,19.8z M17.9,55.6c-1.5,0-4.5-1.5-7.4-4.1
		c-1.9-1.8-5.1-5.4-5.1-9.9c0-1.3,0.1-3,0.6-4.9c0.2-0.7,0.5-1.5,1.3-2.2c0.7-0.6,1.8-1.2,2.8-1.8c0.5-0.3,1-0.6,1.6-0.9
		c1.7-1,2.9-2.7,3.2-2.7c0.5,0,1.5,0.8,1.6,1c1.8,1.8,3.6,3.1,5.1,4.1c2.4,1.6,5.7,2.7,8.2,3.5c0.2,0,0.3,0.5,0.3,1.1
		c0.1,1,0.2,2,0.2,2.7C30.3,49.3,20.9,55.6,17.9,55.6L17.9,55.6z M17.9,55.6"/>
</g>
<path d="M56.3,24.6c2.4-1,4.2-2.4,5.6-4.1c1.4-1.7,2.1-3.6,2.1-5.6s-0.7-3.9-2.1-5.6c-1.4-1.7-3.2-3.1-5.6-4.1
	c-2.4-1-4.9-1.5-7.7-1.5c-2.8,0-5.4,0.5-7.7,1.5c-2.4,1-4.2,2.4-5.6,4.1c-1.4,1.7-2.1,3.6-2.1,5.6c0,1.7,0.5,3.4,1.6,4.9
	c1,1.5,2.5,2.8,4.3,3.9c-0.1,0.4-0.3,0.7-0.4,1c-0.2,0.3-0.3,0.6-0.5,0.8c-0.2,0.3-0.4,0.5-0.5,0.6c-0.1,0.2-0.3,0.4-0.6,0.6
	c-0.3,0.3-0.4,0.5-0.5,0.5c0,0,0,0-0.1,0.1c-0.1,0.1-0.1,0.1-0.1,0.1c0,0,0,0-0.1,0.1c-0.1,0.1-0.1,0.1-0.1,0.1L36,27.9
	c0,0,0,0.1,0,0.1c0,0,0,0.1,0,0.1c0,0.1,0,0.1,0,0.1c0,0.2,0.1,0.3,0.3,0.5c0.1,0.1,0.3,0.2,0.4,0.2h0.1c0.7-0.1,1.4-0.2,1.9-0.3
	c2.2-0.6,4.3-1.5,6.1-2.8c1.3,0.2,2.6,0.3,3.8,0.3C51.4,26.1,53.9,25.6,56.3,24.6L56.3,24.6z M44.1,22.8l-1,0.7
	c-0.4,0.3-0.9,0.6-1.4,0.9l0.8-1.8l-2.1-1.2c-1.4-0.8-2.5-1.8-3.3-2.9c-0.8-1.1-1.2-2.3-1.2-3.5c0-1.5,0.6-2.9,1.7-4.2
	c1.1-1.3,2.7-2.3,4.6-3.1c1.9-0.8,4-1.1,6.3-1.1c2.2,0,4.3,0.4,6.3,1.1c1.9,0.8,3.5,1.8,4.6,3.1c1.1,1.3,1.7,2.7,1.7,4.2
	s-0.6,2.9-1.7,4.2c-1.1,1.3-2.7,2.3-4.6,3.1c-1.9,0.8-4,1.1-6.3,1.1c-1.1,0-2.2-0.1-3.3-0.3L44.1,22.8z M44.1,22.8"/>
</svg>
