<?xml version="1.0" encoding="utf-8"?>
<!-- Generator: Adobe Illustrator 18.1.0, SVG Export Plug-In . SVG Version: 6.00 Build 0)  -->
<svg version="1.1" id="Layer_1" xmlns="http://www.w3.org/2000/svg" xmlns:xlink="http://www.w3.org/1999/xlink" x="0px" y="0px"
	 viewBox="0 0 64 64" enable-background="new 0 0 64 64" xml:space="preserve">
<g>
	<path d="M15.6,50c3.1,0,6-0.9,8.5-2.5C24,46.8,24,46,24,45.3c0-0.2,0-0.3,0-0.5c0-1.2,0.2-2.4,0.4-3.6c0.3-1.4,0.7-2.7,1.2-4
		c1-2.5,2.5-4.7,4.4-6.6c0.1-0.1,0.2-0.2,0.3-0.3l-13-13l9.4-9.4c2.1-2.1,4.8-3.2,7.8-3.2c2.9,0,5.7,1.1,7.8,3.2
		c2.1,2.1,3.2,4.8,3.2,7.8c0,2.9-1.1,5.7-3.2,7.8L40.6,25c1.2-0.2,2.4-0.4,3.7-0.4c0.1,0,0.3,0,0.4,0c0.8,0,1.6,0,2.4,0.1
		c1.9-2.6,2.9-5.8,2.9-9.1c0-4.2-1.6-8.1-4.6-11.1S38.5,0,34.3,0s-8.1,1.6-11.1,4.6L4.6,23.4c-3,3-4.6,6.9-4.6,11.1
		s1.6,8.1,4.6,11.1C7.5,48.4,11.5,50,15.6,50L15.6,50z"/>
	<path d="M45.6,26.6c-0.3,0-0.6,0-0.9,0c-0.9,0-1.7,0.1-2.6,0.2C40.5,27,39,27.4,37.6,28c-2.2,0.9-4.2,2.2-5.9,3.8
		c-1.9,1.8-3.4,4-4.4,6.5c-0.6,1.4-1,2.9-1.2,4.5c-0.1,0.8-0.2,1.7-0.2,2.6c0,0.3,0,0.6,0,0.8c0.2,4.1,1.7,7.9,4.1,10.9l26.3-26.3
		C53.5,28.3,49.7,26.8,45.6,26.6L45.6,26.6z"/>
	<path d="M59.3,33.5L33,59.8c3.2,2.6,7.3,4.2,11.8,4.2c10.3,0,18.7-8.4,18.7-18.7C63.4,40.8,61.9,36.7,59.3,33.5L59.3,33.5z"/>
</g>
</svg>
