<?xml version="1.0" encoding="utf-8"?>
<!-- Generator: Adobe Illustrator 18.1.0, SVG Export Plug-In . SVG Version: 6.00 Build 0)  -->
<svg version="1.1" id="Layer_1" xmlns="http://www.w3.org/2000/svg" xmlns:xlink="http://www.w3.org/1999/xlink" x="0px" y="0px"
	 viewBox="0 0 64 64" enable-background="new 0 0 64 64" xml:space="preserve">
<g>
	<path d="M57.6,12.8h-3.2v48h3.2c3.5,0,6.4-2.9,6.4-6.4V19.2C64,15.7,61.1,12.8,57.6,12.8L57.6,12.8z M0,19.2v35.2
		c0,3.5,2.9,6.4,6.4,6.4h3.2v-48H6.4C2.9,12.8,0,15.7,0,19.2L0,19.2z M42.9,6.1c-2.2-1-5.7-2.9-10.9-2.9c-5.2,0-8.7,1.9-10.9,2.9
		v6.7h-7v48h35.8v-48h-7V6.1z M39,12.8H25V8.5C26.7,7.8,29.1,7,32,7c2.9,0,5.3,0.7,7,1.5V12.8z M39,12.8"/>
</g>
</svg>
