<?xml version="1.0" encoding="utf-8"?>
<!-- Generator: Adobe Illustrator 18.1.0, SVG Export Plug-In . SVG Version: 6.00 Build 0)  -->
<svg version="1.1" id="Layer_1" xmlns="http://www.w3.org/2000/svg" xmlns:xlink="http://www.w3.org/1999/xlink" x="0px" y="0px"
	 viewBox="0 0 64 64" enable-background="new 0 0 64 64" xml:space="preserve">
<g>
	<path d="M58.7,40c0,4-3.2,7.2-7.2,7.2c-4,0-7.2-3.2-7.2-7.2c0-4,3.2-7.2,7.2-7.2C55.4,32.8,58.7,36,58.7,40L58.7,40z M58.7,40"/>
	<g>
		<defs>
			<rect id="SVGID_1_" y="8" width="64" height="48"/>
		</defs>
		<clipPath id="SVGID_2_">
			<use xlink:href="#SVGID_1_"  overflow="visible"/>
		</clipPath>
		<path clip-path="url(#SVGID_2_)" d="M46.6,15.2c0,4-3.2,7.2-7.2,7.2c-4,0-7.2-3.2-7.2-7.2c0-4,3.2-7.2,7.2-7.2
			C43.4,8,46.6,11.2,46.6,15.2L46.6,15.2z M46.6,15.2"/>
		<path clip-path="url(#SVGID_2_)" d="M60,47.6L52.8,50c-1,0.3-3,0.1-3.9-0.4l-5.6-3.2c0.2-0.5,0.4-1.2,0.4-1.8
			c0-2.5-2.1-4.6-4.6-4.6H8.2c-2.5,0-4.6,2.1-4.6,4.6c0,2.5,2.1,4.6,4.6,4.6h28.6l9.3,5.4c1.5,0.9,3.6,1.4,5.5,1.4
			c1.1,0,2.2-0.2,3.1-0.5l7.2-2.4c1.5-0.5,2.3-2.1,1.8-3.6C63.2,48,61.5,47.1,60,47.6L60,47.6z M60,47.6"/>
	</g>
	<path d="M27.5,22.3c-0.6,0.6-5.8,5.9-6.3,16.9h9.2c0.1-1.9,0.4-3.4,0.8-4.8l4.3,4.6h3.1c0.5,0,1.1,0.1,1.6,0.2
		c0.4-0.8,0.2-1.8-0.4-2.5l-6.5-6.9c0.4-0.6,0.7-0.9,0.7-1c1.8-1.8,1.8-4.7,0.1-6.5C32.3,20.6,29.4,20.5,27.5,22.3L27.5,22.3z
		 M27.5,22.3"/>
	<path d="M36,50.3H7.8c-1.4,0-2.7-0.6-3.7-1.4H2.3C1,48.8,0,49.7,0,50.9c0,1.1,1,2.1,2.3,2.1h38.4L36,50.3z M36,50.3"/>
</g>
</svg>
