<?xml version="1.0" encoding="utf-8"?>
<!-- Generator: Adobe Illustrator 18.1.0, SVG Export Plug-In . SVG Version: 6.00 Build 0)  -->
<svg version="1.1" id="Layer_1" xmlns="http://www.w3.org/2000/svg" xmlns:xlink="http://www.w3.org/1999/xlink" x="0px" y="0px"
	 viewBox="0 0 64 64" enable-background="new 0 0 64 64" xml:space="preserve">
<g>
	<path d="M49,16.9c0,1.9-1.4,3.1-2.4,4c-0.4,0.3-1.1,0.9-1.1,1.1c0,0.9-0.7,1.6-1.6,1.6h0c-0.9,0-1.6-0.7-1.6-1.6
		c0-1.7,1.2-2.7,2.2-3.6c0.8-0.7,1.3-1.1,1.3-1.6c0-0.9-0.7-1.6-1.6-1.6c-0.9,0-1.6,0.7-1.6,1.6c0,0.9-0.7,1.6-1.6,1.6
		c-0.9,0-1.6-0.7-1.6-1.6c0-2.6,2.1-4.7,4.7-4.7S49,14.2,49,16.9L49,16.9z M43.9,25c-0.9,0-1.6,0.7-1.6,1.6v0c0,0.9,0.7,1.6,1.6,1.6
		c0.9,0,1.6-0.7,1.6-1.6C45.5,25.7,44.7,25,43.9,25L43.9,25z M11.9,36.1c-0.9,0-1.6,0.7-1.6,1.6c0,0.9,0.7,1.6,1.6,1.6H12
		c0.9,0,1.6-0.7,1.6-1.6c0-0.9-0.7-1.6-1.6-1.6H11.9z M17.4,36.1c-0.9,0-1.6,0.7-1.6,1.6c0,0.9,0.7,1.6,1.6,1.6h0.1
		c0.9,0,1.6-0.7,1.6-1.6c0-0.9-0.7-1.6-1.6-1.6H17.4z M64,10.7v17.9c0,4.2-3.4,7.7-7.6,7.7H35.8c-0.4,0-0.7,0-1,0
		c-0.3,0-0.6,0-0.7,0c-0.1,0.1-0.5,0.4-0.8,0.7c-0.1,0.1-0.3,0.2-0.4,0.4L27,42.6c-0.5,0.4-1.2,0.5-1.7,0.3c-0.6-0.3-1-0.8-1-1.5
		V24.6H7.7c-2.5,0-4.5,2-4.5,4.5V47c0,2.5,2.1,4.4,4.5,4.4h23c0.4,0,0.8,0.2,1.1,0.4l4.7,4.4V41.2c0-0.9,0.7-1.6,1.6-1.6
		c0.9,0,1.6,0.7,1.6,1.6v18.7c0,0.6-0.4,1.2-0.9,1.4c-0.2,0.1-0.4,0.1-0.6,0.1c-0.4,0-0.8-0.2-1.1-0.4l-7-6.4H7.7
		C3.5,54.6,0,51.2,0,47V29.1c0-4.2,3.5-7.7,7.7-7.7h16.6V10.7c0-4.2,3.5-7.6,7.7-7.6h24.3C60.6,3.1,64,6.5,64,10.7L64,10.7z
		 M60.8,10.7c0-2.5-2-4.5-4.4-4.5H32.1c-2.5,0-4.6,2-4.6,4.5v27.1l3.2-2.9c0.1-0.1,0.3-0.3,0.4-0.4c1.5-1.3,1.8-1.6,3.7-1.5
		c0.3,0,0.6,0,0.9,0h20.6c2.5,0,4.4-2,4.4-4.5V10.7z M60.8,10.7"/>
</g>
</svg>
