<svg xmlns="http://www.w3.org/2000/svg" xmlns:xlink="http://www.w3.org/1999/xlink" preserveAspectRatio="xMidYMid" width="60" height="54" viewBox="0 0 60 54">
  <defs>
    <style>

      .cls-2 {
        fill: #000000;
      }
    </style>
  </defs>
  <path d="M59.364,17.774 C59.364,17.774 42.221,0.631 42.221,0.631 C41.797,0.208 41.294,-0.005 40.714,-0.005 C40.134,-0.005 39.631,0.208 39.208,0.631 C38.783,1.056 38.571,1.558 38.571,2.139 C38.571,2.139 38.571,10.710 38.571,10.710 C38.571,10.710 31.071,10.710 31.071,10.710 C15.156,10.710 5.391,15.207 1.775,24.202 C0.591,27.194 -0.000,30.911 -0.000,35.353 C-0.000,39.058 1.417,44.091 4.252,50.453 C4.319,50.609 4.436,50.877 4.604,51.257 C4.771,51.635 4.922,51.971 5.056,52.262 C5.190,52.551 5.335,52.798 5.491,52.997 C5.759,53.377 6.071,53.566 6.429,53.566 C6.763,53.566 7.025,53.454 7.215,53.233 C7.405,53.009 7.500,52.731 7.500,52.395 C7.500,52.195 7.472,51.898 7.416,51.508 C7.360,51.117 7.333,50.855 7.333,50.721 C7.221,49.203 7.165,47.830 7.165,46.603 C7.165,44.348 7.360,42.329 7.751,40.543 C8.141,38.756 8.683,37.211 9.375,35.905 C10.067,34.599 10.960,33.473 12.054,32.524 C13.147,31.575 14.325,30.799 15.586,30.196 C16.847,29.594 18.331,29.120 20.039,28.774 C21.747,28.427 23.465,28.188 25.195,28.053 C26.925,27.919 28.884,27.853 31.071,27.853 C31.071,27.853 38.571,27.853 38.571,27.853 C38.571,27.853 38.571,36.424 38.571,36.424 C38.571,37.004 38.783,37.507 39.208,37.931 C39.631,38.356 40.134,38.567 40.714,38.567 C41.294,38.567 41.797,38.356 42.221,37.931 C42.221,37.931 59.364,20.788 59.364,20.788 C59.788,20.364 60.000,19.861 60.000,19.281 C60.000,18.701 59.788,18.199 59.364,17.774 C59.364,17.774 59.364,17.774 59.364,17.774 Z" id="path-1" class="cls-2" fill-rule="evenodd"/>
</svg>
