<?xml version="1.0" encoding="utf-8"?>
<!-- Generator: Adobe Illustrator 18.1.0, SVG Export Plug-In . SVG Version: 6.00 Build 0)  -->
<svg version="1.1" id="Layer_1" xmlns="http://www.w3.org/2000/svg" xmlns:xlink="http://www.w3.org/1999/xlink" x="0px" y="0px"
	 viewBox="0 0 64 64" enable-background="new 0 0 64 64" xml:space="preserve">
<g>
	<path d="M60.6,28.4h-0.2v-1.9c0-1.8-1.5-3.3-3.3-3.3h-0.9v-2.6c0-1.8-1.5-3.3-3.3-3.3h-5.4c-1.8,0-3.2,1.5-3.2,3.3v7.8H19.9v-7.8
		c0-1.8-1.5-3.3-3.3-3.3h-5.4c-1.8,0-3.2,1.5-3.2,3.3v2.6H7c-1.8,0-3.2,1.5-3.2,3.3v1.9H3.4c-1.9,0-3.4,1.5-3.4,3.4
		c0,1.9,1.5,3.4,3.4,3.4h0.4V37c0,1.8,1.5,3.3,3.2,3.3h1v2.6c0,1.8,1.5,3.3,3.2,3.3h5.4c1.8,0,3.3-1.5,3.3-3.3v-7.8h24.3v7.8
		c0,1.8,1.5,3.3,3.2,3.3H53c1.8,0,3.3-1.5,3.3-3.3v-2.6h0.9c1.8,0,3.3-1.5,3.3-3.3v-1.9h0.2c1.9,0,3.4-1.5,3.4-3.4
		C64,29.9,62.5,28.4,60.6,28.4L60.6,28.4z M60.6,28.4"/>
</g>
</svg>
