<?xml version="1.0" encoding="utf-8"?>
<!-- Generator: Adobe Illustrator 19.1.0, SVG Export Plug-In . SVG Version: 6.00 Build 0)  -->
<svg version="1.1" id="Layer_1" xmlns="http://www.w3.org/2000/svg" xmlns:xlink="http://www.w3.org/1999/xlink" x="0px" y="0px"
	 width="75px" height="75px" viewBox="0 0 75 75" enable-background="new 0 0 75 75" xml:space="preserve">
<g>
	<path d="M45.3,0c5.1,0,7.5,3.5,7.5,7.3c0,4.9-4.4,9.4-10,9.4c-4.8,0-7.5-2.8-7.4-7.5C35.5,5.3,38.8,0,45.3,0L45.3,0z M29.9,75
		c-3.9,0-6.8-2.4-4.1-13.2l4.6-19.1c0.8-3.1,0.9-4.3,0-4.3c-1.2,0-6.4,2.2-9.4,4.2l-2-3.3c9.7-8.2,20.7-13,25.5-13
		c3.9,0,4.6,4.8,2.6,12.1l-5.2,20.1c-0.9,3.6-0.6,4.8,0.4,4.8c1.2,0,5.1-1.5,8.9-4.5l2.2,3.1C44.1,71.3,33.9,75,29.9,75L29.9,75z"/>
</g>
<g>
</g>
<g>
</g>
<g>
</g>
<g>
</g>
<g>
</g>
<g>
</g>
<g>
</g>
<g>
</g>
<g>
</g>
<g>
</g>
<g>
</g>
</svg>
