<?xml version="1.0" encoding="utf-8"?>
<!-- Generator: Adobe Illustrator 18.1.0, SVG Export Plug-In . SVG Version: 6.00 Build 0)  -->
<svg version="1.1" id="Layer_1" xmlns="http://www.w3.org/2000/svg" xmlns:xlink="http://www.w3.org/1999/xlink" x="0px" y="0px"
	 viewBox="0 0 64 64" enable-background="new 0 0 64 64" xml:space="preserve">
<g>
	<path d="M43.3,12.1v-1.7c0-1.5-1.1-2.6-2.6-2.6h-3.9c0.3-0.8,0.6-1.6,0.6-2.4c0-3-2.4-5.4-5.4-5.4s-5.4,2.3-5.4,5.3
		c0,0.9,0.3,1.6,0.6,2.4h-5.1c-1.5,0-2.6,1.1-2.6,2.7V12H13c-2.3,0-4.3,1.9-4.3,4.3v43.5C8.7,62,10.6,64,13,64h37
		c2.3,0,4.3-1.9,4.3-4.3V16.3c0-2.3-1.9-4.3-4.3-4.3L43.3,12.1L43.3,12.1z M28.9,5.3c0-1.7,1.5-3.2,3.2-3.2c1.7,0,3.2,1.5,3.2,3.2
		c0,1-0.4,1.8-1,2.4H30C29.3,7.1,28.9,6.2,28.9,5.3L28.9,5.3z M49.8,57.4c0,1.2-1,2.2-2.2,2.2H15.2c-1.2,0-2.2-1-2.2-2.2V18.6
		c0-1.2,1-2.2,2.2-2.2h4.3c0,1.2,1,2.2,2.2,2.2h19.5c1.2,0,2.2-1,2.2-2.2h4.3c1.2,0,2.2,1,2.2,2.2L49.8,57.4L49.8,57.4z"/>
	<path d="M29.6,39.1L27,36.4c-0.3-0.3-0.7-0.4-1.1-0.4s-0.9,0.2-1.1,0.4l-0.9,0.9c-0.6,0.6-0.6,1.6,0,2.3l4.6,4.6
		c0.3,0.3,0.7,0.4,1.1,0.4c0.4,0,0.9-0.2,1.1-0.5l8-8.6c0.6-0.6,0.6-1.6-0.1-2.3l-0.9-0.8c-0.3-0.3-0.7-0.4-1.1-0.4
		c-0.4,0-0.9,0.3-1.1,0.5L29.6,39.1z"/>
	<path d="M31.4,21.7c-8.7,0-15.8,7.1-15.8,15.8s7.1,15.8,15.8,15.8s15.8-7.1,15.8-15.8S40.2,21.7,31.4,21.7L31.4,21.7z M31.4,49.1
		c-6.3,0-11.6-5.1-11.6-11.6S25,26,31.4,26S43,31.1,43,37.6S37.8,49.1,31.4,49.1L31.4,49.1z"/>
</g>
</svg>
