<?xml version="1.0" encoding="utf-8"?>
<!-- Generator: Adobe Illustrator 19.1.0, SVG Export Plug-In . SVG Version: 6.00 Build 0)  -->
<svg version="1.1" id="Layer_1" xmlns="http://www.w3.org/2000/svg" xmlns:xlink="http://www.w3.org/1999/xlink" x="0px" y="0px"
	 width="64.9px" height="60px" viewBox="0 0 64.9 60" enable-background="new 0 0 64.9 60" xml:space="preserve">
<g>
	<path d="M64.8,25.3c-0.2-0.5-0.7-0.8-1.2-0.8h-4C56.9,10.6,44.7,0,30,0C13.5,0,0,13.5,0,30s13.5,30,30,30c10.7,0,20.6-5.7,26-15
		c0.8-1.3,0.3-3-1-3.7c-1.3-0.8-3-0.3-3.7,1C46.9,49.8,38.7,54.5,30,54.5c-13.5,0-24.5-11-24.5-24.5S16.5,5.5,30,5.5
		c11.7,0,21.4,8.2,23.9,19.1h-4c-0.5,0-1,0.3-1.2,0.8s-0.2,1,0.2,1.4l6.8,8.2c0.3,0.3,0.6,0.5,1,0.5s0.8-0.2,1-0.5l6.8-8.2
		C64.9,26.4,65,25.8,64.8,25.3L64.8,25.3z"/>
	<path d="M30,6.8c-1.5,0-2.7,1.2-2.7,2.7V26c-1.2,0.9-2,2.3-2,3.9c0,2.6,2.1,4.8,4.8,4.8c0.7,0,1.4-0.2,2-0.5l9.5,5.5
		c0.4,0.3,0.9,0.4,1.4,0.4c0.9,0,1.9-0.5,2.4-1.4c0.7-1.3,0.3-3-1-3.7l-9.5-5.5c-0.1-1.4-0.9-2.7-2-3.5V9.5C32.7,8,31.5,6.8,30,6.8
		L30,6.8z M30,32c-1.1,0-2-0.9-2-2.1c0-1.1,0.9-2,2-2s2,0.9,2,2C32,31.1,31.1,32,30,32L30,32z"/>
</g>
<g>
</g>
<g>
</g>
<g>
</g>
<g>
</g>
<g>
</g>
<g>
</g>
<g>
</g>
<g>
</g>
<g>
</g>
<g>
</g>
<g>
</g>
</svg>
