<svg xmlns="http://www.w3.org/2000/svg" xmlns:xlink="http://www.w3.org/1999/xlink" preserveAspectRatio="xMidYMid" width="60" height="54" viewBox="0 0 60 54">
  <defs>
    <style>

      .cls-2 {
        fill: #000000;
      }
    </style>
  </defs>
  <path d="M0.636,17.774 C0.636,17.774 17.779,0.631 17.779,0.631 C18.203,0.208 18.706,-0.005 19.286,-0.005 C19.866,-0.005 20.369,0.208 20.792,0.631 C21.217,1.056 21.429,1.558 21.429,2.139 C21.429,2.139 21.429,10.710 21.429,10.710 C21.429,10.710 28.929,10.710 28.929,10.710 C44.844,10.710 54.609,15.208 58.225,24.203 C59.409,27.194 60.000,30.911 60.000,35.353 C60.000,39.057 58.583,44.092 55.748,50.453 C55.681,50.609 55.564,50.877 55.396,51.257 C55.229,51.636 55.078,51.971 54.944,52.262 C54.810,52.551 54.665,52.797 54.509,52.998 C54.241,53.377 53.929,53.566 53.571,53.566 C53.237,53.566 52.975,53.454 52.785,53.233 C52.595,53.009 52.500,52.729 52.500,52.395 C52.500,52.195 52.528,51.898 52.584,51.508 C52.640,51.117 52.667,50.855 52.667,50.721 C52.779,49.203 52.835,47.831 52.835,46.603 C52.835,44.348 52.640,42.328 52.249,40.543 C51.859,38.756 51.317,37.211 50.625,35.905 C49.933,34.600 49.040,33.472 47.946,32.524 C46.853,31.575 45.675,30.799 44.414,30.196 C43.153,29.594 41.669,29.120 39.961,28.774 C38.253,28.427 36.535,28.188 34.805,28.053 C33.075,27.920 31.116,27.853 28.929,27.853 C28.929,27.853 21.429,27.853 21.429,27.853 C21.429,27.853 21.429,36.423 21.429,36.423 C21.429,37.004 21.217,37.507 20.792,37.931 C20.369,38.356 19.866,38.567 19.286,38.567 C18.706,38.567 18.203,38.356 17.779,37.931 C17.779,37.931 0.636,20.788 0.636,20.788 C0.212,20.364 0.000,19.861 0.000,19.281 C0.000,18.701 0.212,18.199 0.636,17.774 C0.636,17.774 0.636,17.774 0.636,17.774 Z" id="path-1" class="cls-2" fill-rule="evenodd"/>
</svg>
