<?xml version="1.0" encoding="utf-8"?>
<!-- Generator: Adobe Illustrator 19.1.0, SVG Export Plug-In . SVG Version: 6.00 Build 0)  -->
<svg version="1.1" id="Layer_1" xmlns="http://www.w3.org/2000/svg" xmlns:xlink="http://www.w3.org/1999/xlink" x="0px" y="0px"
	 width="60px" height="68.4px" viewBox="-7 3.6 60 68.4" enable-background="new -7 3.6 60 68.4" xml:space="preserve">
<g>
	<g>
		<g>
			<defs>
				<rect id="SVGID_1_" x="-7" y="3.6" width="60" height="68.4"/>
			</defs>
			<clipPath id="SVGID_2_">
				<use xlink:href="#SVGID_1_"  overflow="visible"/>
			</clipPath>
			<path clip-path="url(#SVGID_2_)" d="M15.9,21.2c0-1.5,1.2-2.7,2.7-2.7s2.7,1.2,2.7,2.7s-1.2,2.7-2.7,2.7
				C17.1,24,15.9,22.8,15.9,21.2L15.9,21.2z M18.6,51.7c-1.4,0-2.5,1.1-2.5,2.5s1.1,2.5,2.5,2.5s2.5-1.1,2.5-2.5
				C21.1,52.9,20,51.7,18.6,51.7L18.6,51.7z M2.3,35.2c-1.4,0-2.5,1.1-2.5,2.5c0,1.4,1.1,2.5,2.5,2.5s2.5-1.1,2.5-2.5
				C4.8,36.4,3.7,35.2,2.3,35.2L2.3,35.2z M32.3,37.8c0,1.4,1.2,2.6,2.6,2.6c1.4,0,2.6-1.2,2.6-2.6c0-1.4-1.2-2.6-2.6-2.6
				C33.4,35.1,32.3,36.3,32.3,37.8L32.3,37.8z M19.8,34.6V34h-1.6v0.6c-0.8,0.2-1.5,0.8-1.8,1.5H9.6v2.7h6.8c0.4,0.7,1,1.3,1.8,1.5
				v9.8h1.6v-9.8c0.8-0.2,1.5-0.8,1.8-1.5h1.9v-2.7h-1.9C21.2,35.4,20.6,34.8,19.8,34.6L19.8,34.6z M53,33v9.6h-6.4v-2.7H44
				c-0.4,5.2-2.4,10-5.4,13.9c-0.7,4.7-2.9,12.4-2.9,12.4l-5.8,5.7h-23l-5.4-5.7c0,0-2.2-7.8-2.9-12.4c-3.5-4.4-5.6-10-5.6-16
				c0-6.1,2.1-11.6,5.6-16c0.7-4.7,2.9-12.4,2.9-12.4l5.4-5.8h23l5.7,5.8c0,0,2.2,7.7,2.9,12.4c3.1,3.9,5,8.7,5.4,13.9h2.5v-2.6
				L53,33L53,33z M39.4,37.8c0-11.5-9.3-20.8-20.8-20.8S-2.2,26.3-2.2,37.8s9.3,20.8,20.8,20.8S39.4,49.2,39.4,37.8L39.4,37.8z
				 M11.7,29.8l-5.2-5.2L5,26.2l5.2,5.2L11.7,29.8z M32.3,26.1l-1.6-1.5L26,29.8l1.6,1.5L32.3,26.1z M5,50l1.5,1.5l5.2-5.2l-1.5-1.5
				L5,50z M26,46.4l4.8,5.1l1.6-1.5l-4.8-5.1L26,46.4z"/>
		</g>
	</g>
</g>
</svg>
