<?xml version="1.0" encoding="utf-8"?>
<!-- Generator: Adobe Illustrator 18.1.0, SVG Export Plug-In . SVG Version: 6.00 Build 0)  -->
<svg version="1.1" id="Layer_1" xmlns="http://www.w3.org/2000/svg" xmlns:xlink="http://www.w3.org/1999/xlink" x="0px" y="0px"
	 viewBox="0 0 64 64" enable-background="new 0 0 64 64" xml:space="preserve">
<g>
	<path d="M8.7,59.5c0,0,0,1.4,1.3,1.4c1.7,0,16.1,0,16.1,0l0-13.2c0,0-0.2-2.2,1.9-2.2h6.7c2.5,0,2.3,2.2,2.3,2.2l0,13.2h15.8
		c1.8,0,1.7-1.8,1.7-1.8V34.7L32.3,14.9L8.7,34.7V59.5z M8.7,59.5"/>
	<path d="M0,32.9c0,0,2,3.7,6.4,0l26.1-22.1l24.5,22c5.1,3.7,7,0,7,0L32.5,4.2L0,32.9z M0,32.9"/>
	<path d="M56.4,10.7h-6.3l0,7.6l6.3,5.3V10.7z M56.4,10.7"/>
</g>
</svg>
