<?xml version="1.0" encoding="utf-8"?>
<!-- Generator: Adobe Illustrator 18.1.0, SVG Export Plug-In . SVG Version: 6.00 Build 0)  -->
<svg version="1.1" id="Layer_1" xmlns="http://www.w3.org/2000/svg" xmlns:xlink="http://www.w3.org/1999/xlink" x="0px" y="0px"
	 viewBox="0 0 64 64" enable-background="new 0 0 64 64" xml:space="preserve">
<g>
	<path d="M63.2,40.6H0.8C0.3,40.6,0,41,0,41.4v3.4c0,0.4,0.3,0.8,0.8,0.8h25v1.4H8.3c-0.4,0-0.8,0.3-0.8,0.8v4.7
		c0,0.4,0.3,0.8,0.8,0.8h47.3c0.4,0,0.8-0.3,0.8-0.8v-4.7c0-0.4-0.3-0.8-0.8-0.8H38.2v-1.4h25c0.4,0,0.8-0.3,0.8-0.8v-3.4
		C64,41,63.7,40.6,63.2,40.6L63.2,40.6z M63.2,40.6"/>
	<path d="M56.2,15.6c0,2.9-2.3,5.2-5.2,5.2c-2.9,0-5.2-2.3-5.2-5.2c0-2.9,2.3-5.2,5.2-5.2C53.9,10.4,56.2,12.8,56.2,15.6L56.2,15.6z
		 M56.2,15.6"/>
	<path d="M1.5,39.3h41.7c0,0,15.6-15,18.7-18c0.3-0.3,0.3-0.8,0-1.1l-1.6-1.7c-0.3-0.3-0.8-0.3-1.1,0l-16,15.4v-1.1
		c0-0.3-0.2-0.4-0.4-0.2l-2.1,1.8c-0.4,0.3-0.8,0.5-1.3,0.5c-0.6,0-1.1-0.2-1.5-0.7l-5-5.9c-0.7-0.8-0.6-2.1,0.2-2.8
		c0.4-0.3,0.8-0.5,1.3-0.5c0.6,0,1.1,0.2,1.5,0.7l3.4,4c0.2,0.2,0.6,0.3,0.8,0.1l2.7-2.3c0.2-0.2,0.4-0.6,0.4-1V22
		c0-0.3-0.2-0.5-0.5-0.4L10.1,32.2c-0.3,0.1-0.5,0.4-0.5,0.8v2.4h-8c-0.4,0-0.8,0.3-0.8,0.8v2.4C0.8,38.9,1.1,39.3,1.5,39.3
		L1.5,39.3z M1.5,39.3"/>
	<path d="M39.3,30.7l-3.9-4.6c-0.5-0.5-1.3-0.6-1.8-0.1c-0.5,0.5-0.6,1.3-0.1,1.8l5,5.9c0.5,0.5,1.3,0.6,1.8,0.1l3.8-3.2v0.9
		c0,0.3,0.2,0.4,0.4,0.2l9.1-9.1c0.2-0.2,0.2-0.5-0.1-0.6c-0.5-0.1-1.3-0.1-2.8-0.1c-2,0-3.2-0.7-3.8-1.2c-0.2-0.2-0.6-0.2-0.9-0.1
		l-1.4,1.1C44.2,22,44,22.4,44,22.7v4.5l-4.1,3.5C39.7,30.9,39.4,30.8,39.3,30.7L39.3,30.7z M39.3,30.7"/>
</g>
</svg>
