<?xml version="1.0" encoding="utf-8"?>
<!-- Generator: Adobe Illustrator 19.1.0, SVG Export Plug-In . SVG Version: 6.00 Build 0)  -->
<svg version="1.1" id="Layer_1" xmlns="http://www.w3.org/2000/svg" xmlns:xlink="http://www.w3.org/1999/xlink" x="0px" y="0px"
	 width="60px" height="82.2px" viewBox="0 0 60 82.2" enable-background="new 0 0 60 82.2" xml:space="preserve">
<g>
	<g>
		<g>
			<g>
				<defs>
					<rect id="SVGID_1_" width="60" height="82.2"/>
				</defs>
				<clipPath id="SVGID_2_">
					<use xlink:href="#SVGID_1_"  overflow="visible"/>
				</clipPath>
				<path clip-path="url(#SVGID_2_)" d="M4.9,13.8c-0.4-1.4-1.8-2.2-3-1.8c-1.4,0.3-2.2,1.6-1.8,3l16.6,65.2
					c0.3,1.1,1.4,1.9,2.5,1.9c0.1,0,0.4,0,0.7-0.1c1.4-0.3,2.2-1.8,1.8-3L4.9,13.8z"/>
			</g>
		</g>
		<g>
			<g>
				<defs>
					<rect id="SVGID_3_" width="60" height="82.2"/>
				</defs>
				<clipPath id="SVGID_4_">
					<use xlink:href="#SVGID_3_"  overflow="visible"/>
				</clipPath>
				<path clip-path="url(#SVGID_4_)" d="M60,32.2c-2.7-10-5.3-19.9-8.1-29.9c-0.3-1.1-0.8-2.2-2.7-2.3C34-1.1,24.1,14,8.9,12.9
					c-1.2-0.1-1.9,0.4-1.6,1.5c2.7,10,5.3,19.9,8.1,29.9c0.4,1.6,1.5,2.2,2.7,2.3c15.2,1.1,25.1-14,40.3-12.9
					C59.5,34,60.3,33.3,60,32.2L60,32.2z M48.1,3.8c0.7,2.7,1.5,5.5,2.2,8.2c-3.2,0.1-6,0.7-9,1.9c-0.7-2.7-1.5-5.5-2.2-8.2
					C42.1,4.5,44.9,4,48.1,3.8L48.1,3.8z M16.8,34.5c-0.8-3.2-1.6-6.2-2.5-9.3c3.3-0.1,6.3-0.8,9.5-2.1c-0.7-2.7-1.5-5.5-2.2-8.2
					c3-1.4,5.9-3,8.8-4.7c0.7,2.7,1.5,5.5,2.2,8.2c-2.9,1.6-5.8,3.3-8.8,4.7c0.8,3.2,1.6,6.2,2.5,9.3C23.2,33.7,20.3,34.5,16.8,34.5
					L16.8,34.5z M28.6,40.8c-0.8-2.7-1.5-5.6-2.3-8.4c3-1.4,5.9-3,8.8-4.7c0.8,2.7,1.5,5.6,2.3,8.4C34.4,37.9,31.6,39.4,28.6,40.8
					L28.6,40.8z M35.1,27.8c-0.8-3.2-1.6-6.2-2.5-9.3c2.9-1.6,5.8-3.3,8.8-4.7c0.8,3.2,1.6,6.2,2.5,9.3
					C40.8,24.5,37.9,26.2,35.1,27.8L35.1,27.8z M46.2,31.6c-0.8-2.7-1.5-5.6-2.3-8.4c3-1.1,5.8-1.8,8.9-1.8c0.8,2.7,1.5,5.6,2.3,8.4
					C51.9,29.9,49.2,30.4,46.2,31.6L46.2,31.6z"/>
			</g>
		</g>
	</g>
</g>
<g>
</g>
<g>
</g>
<g>
</g>
<g>
</g>
<g>
</g>
<g>
</g>
<g>
</g>
<g>
</g>
<g>
</g>
<g>
</g>
<g>
</g>
</svg>
