<?xml version="1.0" encoding="utf-8"?>
<!-- Generator: Adobe Illustrator 19.1.0, SVG Export Plug-In . SVG Version: 6.00 Build 0)  -->
<svg version="1.1" id="Layer_1" xmlns="http://www.w3.org/2000/svg" xmlns:xlink="http://www.w3.org/1999/xlink" x="0px" y="0px"
	 width="75px" height="75px" viewBox="0 0 75 75" enable-background="new 0 0 75 75" xml:space="preserve">
<g>
	<path d="M64.8,62.9c0,3.6-2.3,6.6-5.5,7.6V46.2h-3.6c-4.8,0-8.7-3.9-8.7-8.7s3.9-8.7,8.7-8.7h3.6V4.4c3.2,1.1,5.5,4.1,5.5,7.6V29h4
		V12.1C68.8,5.4,63.4,0,56.7,0H17.4C10.7,0,5.3,5.4,5.3,12.1v50.9c0,6.7,5.4,12.1,12.1,12.1h39.4c6.7,0,12.1-5.4,12.1-12.1V46.2h-4
		V62.9z M39.8,40.8h-9.6v9.6h-7v-9.6h-9.6v-7h9.6v-9.6h7v9.6h9.6C39.8,33.9,39.8,40.8,39.8,40.8z"/>
	<path d="M68.1,32.2H56.5c-1.9,0-3.6,1-4.5,2.5c1.5,0.1,2.6,1.5,2.6,3c0,1.6-1.2,2.9-2.6,3c1,1.5,2.6,2.4,4.5,2.4h11.7
		c0.3,0,0.6-0.3,0.6-0.6v-9.6C68.8,32.4,68.5,32.2,68.1,32.2z"/>
</g>
<g>
</g>
<g>
</g>
<g>
</g>
<g>
</g>
<g>
</g>
<g>
</g>
<g>
</g>
<g>
</g>
<g>
</g>
<g>
</g>
<g>
</g>
</svg>
