<?xml version="1.0" encoding="utf-8"?>
<!-- Generator: Adobe Illustrator 18.1.0, SVG Export Plug-In . SVG Version: 6.00 Build 0)  -->
<svg version="1.1" id="Layer_1" xmlns="http://www.w3.org/2000/svg" xmlns:xlink="http://www.w3.org/1999/xlink" x="0px" y="0px"
	 viewBox="0 0 64 64" enable-background="new 0 0 64 64" xml:space="preserve">
<g>
	<g>
		<defs>
			<rect id="SVGID_1_" y="6.2" width="64" height="52.5"/>
		</defs>
		<clipPath id="SVGID_2_">
			<use xlink:href="#SVGID_1_"  overflow="visible"/>
		</clipPath>
		<path clip-path="url(#SVGID_2_)" fill="#010002" d="M52.8,34c-0.9,0-1.7,0.5-2.1,1.3l-3.5,6.6l-4.3-12.6c-0.3-0.9-1.2-1.6-2.2-1.6
			c-1,0-1.9,0.6-2.3,1.5l-2.9,7L30.7,8.2c-0.2-1.2-1.3-2.1-2.4-2c-1.2,0-2.2,0.8-2.4,2l-4.1,32.4l-3.3-17.4c-0.2-1-1-1.8-2.1-1.9
			c-1-0.1-2,0.4-2.5,1.4L8.5,34H0v4.8h10c0.9,0,1.8-0.5,2.2-1.4l2.9-6.1L19.8,56c0.2,1.2,1.2,2,2.4,2h0.1c1.2,0,2.2-0.9,2.3-2.1
			l4.1-31.8L32.1,45c0.2,1.1,1,1.9,2.1,2c1.1,0.1,2.1-0.5,2.5-1.5l3.6-8.7l4,11.9c0.3,0.9,1.2,1.6,2.1,1.6c1,0,1.9-0.4,2.3-1.3
			l5.4-10.2h10.4V34H52.8z M52.8,34"/>
	</g>
</g>
</svg>
