<?xml version="1.0" encoding="utf-8"?>
<!-- Generator: Adobe Illustrator 19.1.0, SVG Export Plug-In . SVG Version: 6.00 Build 0)  -->
<svg version="1.1" id="Layer_1" xmlns="http://www.w3.org/2000/svg" xmlns:xlink="http://www.w3.org/1999/xlink" x="0px" y="0px"
	 width="75px" height="75px" viewBox="0 0 75 75" enable-background="new 0 0 75 75" xml:space="preserve">
<g>
	<path d="M34.1,15.7h2.3v12.4c0,0.5,0.4,0.8,0.8,0.8h1.8c0.5,0,0.8-0.4,0.8-0.8V13.3c0-0.5-0.4-0.8-0.8-0.8h-4.6
		c-0.5,0-0.8,0.4-0.8,0.8v1.6C33.3,15.3,33.7,15.7,34.1,15.7L34.1,15.7z"/>
	<path d="M22.1,59.8h-6.1l3.3-3.5c1.3-1.4,2.9-3.4,2.9-5.4c0-2.6-2.1-4.5-5.3-4.5c-1.9,0-3.9,0.9-5.5,2.3c-0.3,0.3-0.4,0.6-0.1,1
		l0.8,1.4c0.1,0.3,0.4,0.4,0.6,0.4s0.5,0,0.6-0.3c1-1,2.4-1.6,3.5-1.6c1,0,2.1,0.3,2.1,1.5c0,0.6-0.5,1.8-1.8,3l0,0l-5.8,6.3
		c-0.1,0.1-0.3,0.4-0.3,0.5v1.4c0,0.5,0.4,0.8,0.8,0.8h10.1c0.5,0,0.8-0.4,0.8-0.8v-1.6C22.9,60.2,22.6,59.8,22.1,59.8L22.1,59.8z"
		/>
	<path d="M58.2,38c-1.6,0-3.1,0.3-4.5,0.6l-4.5-5.5c3.3-3.1,5.4-7.5,5.4-12.3c-0.1-9.4-7.6-17-17-17s-16.9,7.6-16.9,16.9
		c0,4.9,2,9.3,5.4,12.3l-4.5,5.5c-1.5-0.4-3-0.6-4.5-0.6c-9.4,0.1-17,7.6-17,17s7.6,16.9,16.9,16.9c8.8,0,15.9-6.6,16.8-15.1h7.6
		c0.9,8.5,8.1,15.1,16.8,15.1c9.4,0,16.9-7.6,16.9-16.9C75.1,45.5,67.5,38,58.2,38L58.2,38z M24,20.7C24,13.2,30.1,7,37.6,7
		s13.6,6.1,13.6,13.6s-6.1,13.8-13.6,13.8S24,28.2,24,20.7L24,20.7z M28.2,34.8c2.6,1.8,5.9,2.9,9.4,2.9c3.5,0,6.6-1,9.4-2.9
		l3.9,4.9c-5.4,2.5-9.1,7.9-9.5,14.1h-7.5c-0.4-6.3-4.1-11.6-9.5-14.3L28.2,34.8z M16.9,68.5c-7.5,0-13.6-6.1-13.6-13.6
		c0-7.5,6.1-13.6,13.6-13.6s13.6,6.1,13.6,13.6C30.7,62.4,24.5,68.5,16.9,68.5L16.9,68.5z M58.2,68.5c-7.5,0-13.6-6.1-13.6-13.6
		c0-7.5,6.1-13.6,13.6-13.6s13.6,6.1,13.6,13.6C71.9,62.4,65.7,68.5,58.2,68.5L58.2,68.5z"/>
	<path d="M59.6,53l3.5-3.9c0.1-0.1,0.3-0.4,0.3-0.5v-1.1c0-0.5-0.4-0.8-0.8-0.8h-8.5c-0.5,0-0.8,0.4-0.8,0.8v1.6
		c0,0.5,0.4,0.8,0.8,0.8h4.6l-3.1,3.4c-0.1,0.1-0.3,0.4-0.3,0.5v1.1c0,0.5,0.4,0.8,0.8,0.8H58c1.9,0,2.9,0.6,2.9,2
		c0,1.4-1,2.3-2.9,2.3c-1.1,0-2.4-0.5-3.3-1.3c-0.3-0.1-0.4-0.3-0.6-0.1c-0.3,0-0.5,0.3-0.5,0.4l-1,1.5c-0.1,0.4-0.1,0.8,0.3,1
		c1.4,1,3.4,1.6,5.1,1.6c3.6,0,6-2.1,6-5.4C64,55.1,62.2,53.3,59.6,53L59.6,53z"/>
</g>
<g>
</g>
<g>
</g>
<g>
</g>
<g>
</g>
<g>
</g>
<g>
</g>
<g>
</g>
<g>
</g>
<g>
</g>
<g>
</g>
<g>
</g>
</svg>
