<?xml version="1.0" encoding="utf-8"?>
<!-- Generator: Adobe Illustrator 18.1.0, SVG Export Plug-In . SVG Version: 6.00 Build 0)  -->
<svg version="1.1" id="Layer_1" xmlns="http://www.w3.org/2000/svg" xmlns:xlink="http://www.w3.org/1999/xlink" x="0px" y="0px"
	 viewBox="0 0 64 64" enable-background="new 0 0 64 64" xml:space="preserve">
<g>
	<path d="M54.5,37.6L52.9,28L32.6,40.1L12.8,28l-1.6,10.3c0,0,0,0,0,0c-0.2,0.4-0.4,0.8-0.4,1.2c0,3.6,15.3,14.9,20.4,14.9
		c5.1,0,23.7-11.2,23.7-14.9C54.9,39.1,54.7,38.8,54.5,37.6L54.5,37.6z M32.8,38L1.7,19.1l31.2-10L64,19L32.8,38z M1.9,20.8L0,41.5
		l1.9,6.2l1.7-6.2L1.9,20.8z M1.9,20.8"/>
</g>
</svg>
