<?xml version="1.0" encoding="utf-8"?>
<!-- Generator: Adobe Illustrator 19.1.0, SVG Export Plug-In . SVG Version: 6.00 Build 0)  -->
<svg version="1.1" id="Layer_1" xmlns="http://www.w3.org/2000/svg" xmlns:xlink="http://www.w3.org/1999/xlink" x="0px" y="0px"
	 width="75px" height="75px" viewBox="0 0 75 75" enable-background="new 0 0 75 75" xml:space="preserve">
<g>
	<path d="M55.3,22.1C44.7,28.6,37,36.9,33.9,40.5l-8-6.2c-0.2-0.2-4.5,3.7-4.4,3.8L36,52.8c0.1,0.1,0.3,0.2,0.5,0.2h0.1
		c0.2,0,0.4-0.2,0.5-0.4c2.3-5.9,10-18.4,19.9-27.5c0.2-0.2,0.3-0.5,0.2-0.6C56.9,24.5,55.3,22.1,55.3,22.1L55.3,22.1z"/>
	<path d="M64.7,9.1C42.7,9.1,39,0.7,39,0.6C38.9,0.3,38.5,0,38,0l0,0c-0.5,0-0.8,0.3-1,0.6c0,0.1-3.8,8.4-25.7,8.4
		c-0.6,0-1.1,0.6-1.1,1.1v37.3c0,15.3,26.2,27,27.3,27.4c0.2,0.1,0.3,0.1,0.5,0.1c0.1,0,0.3,0,0.5-0.1c1.1-0.5,27.3-12.1,27.3-27.4
		V10.2C65.8,9.6,65.4,9.1,64.7,9.1L64.7,9.1z M59.8,45.3c0,12-20.6,21.1-21.4,21.5c-0.1,0.1-0.2,0.1-0.4,0.1c-0.1,0-0.3,0-0.4-0.1
		c-0.8-0.4-21.4-9.5-21.4-21.5V16.1c0-0.5,0.4-0.8,0.8-0.8c17.1,0,20.1-6.5,20.1-6.6c0.2-0.4,0.5-0.6,0.8-0.6l0,0
		c0.4,0,0.6,0.2,0.7,0.6c0,0.1,3,6.6,20.1,6.6c0.5,0,0.8,0.4,0.8,0.8L59.8,45.3L59.8,45.3z"/>
</g>
<g>
</g>
<g>
</g>
<g>
</g>
<g>
</g>
<g>
</g>
<g>
</g>
<g>
</g>
<g>
</g>
<g>
</g>
<g>
</g>
<g>
</g>
</svg>
