<?xml version="1.0" encoding="utf-8"?>
<!-- Generator: Adobe Illustrator 19.1.0, SVG Export Plug-In . SVG Version: 6.00 Build 0)  -->
<svg version="1.1" id="Layer_1" xmlns="http://www.w3.org/2000/svg" xmlns:xlink="http://www.w3.org/1999/xlink" x="0px" y="0px"
	 width="75px" height="75px" viewBox="0 0 75 75" enable-background="new 0 0 75 75" xml:space="preserve">
<g>
	<g>
		<g>
			<defs>
				<rect id="SVGID_1_" x="6.3" width="63.2" height="75"/>
			</defs>
			<clipPath id="SVGID_2_">
				<use xlink:href="#SVGID_1_"  overflow="visible"/>
			</clipPath>
			<path clip-path="url(#SVGID_2_)" d="M15.9,38.4c0.1,1.5,0.9,2.8,2.3,3.7c1.2,0.6,2.3,1.2,3.6,1.5c-0.7,2.3-1.9,5.7-4.2,9.3
				c-2.1,3.4-2.2,7.6-0.1,11.3c3.1,5.6,9.9,9.3,17,9.3c4.8,0,9.2-2.2,12.1-6.3c4.2-5.8,5.2-14.3,2.5-22.9
				c-2.5-7.9,0.8-12.1,3.1-13.9c1.8,1.7,4.2,2.7,6.8,2.7c5.5,0,9.9-4.4,9.9-9.9s-4.4-9.9-9.9-9.9s-9.9,4.4-9.9,9.9
				c0,0.7,0.1,1.5,0.3,2.2c-4.1,3.1-9,9.8-5.6,20.5c2.1,6.7,1.5,13.6-1.7,17.9c-1.4,1.8-3.8,4-7.6,4c-5,0-9.9-2.6-12-6.4
				c-0.7-1.4-1.4-3.5-0.1-5.6c2.9-4.7,4.4-9.2,5.2-11.9c1.7-0.2,3.3-0.7,4.8-1.6c1.4-0.7,2.2-2.1,2.4-3.5c6.5-5.9,9.6-16.6,9.8-17.3
				c0.3-1.3-0.2-2.6-1.4-3.2c0.9-8-2.1-12.1-3.9-13.7c0.1-0.7-0.2-1.6-0.8-2l-3.3-2.1c-0.8-0.5-1.9-0.3-2.4,0.6l-1.6,3.1
				c-0.5,0.9-0.1,1.9,0.9,2.2l3.7,1.1c0.9,0.3,2.1-0.2,2.6-0.9c1.5,1.6,3.6,5.1,2.8,11.7c-1.1,0.2-1.9,0.9-2.2,2
				c-0.8,3.3-3.5,9.9-7.4,13.8c-1.3-0.5-2.6-0.4-3.9,0.2c-0.8,0.4-1.6,0.6-2.4,0.6h-0.2c-0.8,0-1.7-0.2-2.5-0.7
				c-1.3-0.6-2.6-0.7-3.8-0.3c-3.8-4-6.3-10.5-7.2-13.7c-0.3-1.1-1.2-1.8-2.2-2c-0.7-7,1.5-10.4,2.9-12c0.5,0.8,1.7,1.3,2.6,1.1
				l3.7-1.1C19.8,5.9,20.2,5,19.8,4l-1.6-3.1c-0.4-0.9-1.6-1.3-2.4-0.6l-3.3,2.1c-0.7,0.4-1.1,1.3-0.8,2.1
				c-1.8,1.7-4.7,5.7-3.9,13.7c-1.2,0.6-1.7,1.9-1.4,3.2C6.6,22,9.6,32.4,15.9,38.4L15.9,38.4z M59.1,19.3c2.1,0,3.9,1.8,3.9,3.9
				s-1.8,3.9-3.9,3.9c-2.1,0-3.9-1.8-3.9-3.9C55.2,21.1,56.9,19.3,59.1,19.3L59.1,19.3z"/>
		</g>
	</g>
</g>
<g>
</g>
<g>
</g>
<g>
</g>
<g>
</g>
<g>
</g>
<g>
</g>
<g>
</g>
<g>
</g>
<g>
</g>
<g>
</g>
<g>
</g>
</svg>
