<?xml version="1.0" encoding="utf-8"?>
<!-- Generator: Adobe Illustrator 19.1.0, SVG Export Plug-In . SVG Version: 6.00 Build 0)  -->
<svg version="1.1" id="Layer_1" xmlns="http://www.w3.org/2000/svg" xmlns:xlink="http://www.w3.org/1999/xlink" x="0px" y="0px"
	 width="75px" height="75px" viewBox="0 0 75 75" enable-background="new 0 0 75 75" xml:space="preserve">
<g>
	<g>
		<path d="M24,8.8L24,8.8L24,8.8z"/>
		<path d="M75,37.4C75,18.9,60,3.9,41.5,3.9C35.1,3.9,29,5.7,24,8.8c6.4,0.8,12.2,3.4,16.9,7.4c0.1,0,0.3,0,0.4,0
			c11.9,0,21.5,9.6,21.5,21.5s-9.6,21.5-21.5,21.5c-11.9,0-21.5-9.6-21.5-21.5c0-0.8,0-1.7,0.1-2.5L9.1,28.4c-0.8,2.9-1.2,6-1.2,9.2
			c0,18.6,15,33.5,33.5,33.5S75,56,75,37.4z"/>
		<path d="M21.1,10.7v-4c0-1.7-1.1-2.3-2.6-1.5L1.1,16.3c-1.5,0.9-1.5,2.3,0,3.2l17.4,11.1c1.5,0.9,2.6,0.2,2.6-1.5v-4
			c12,0,22.1,8.2,25.3,19.1c0.7-2.3,1-4.8,1-7.4C47.5,22.6,35.6,10.7,21.1,10.7z"/>
	</g>
</g>
<g>
</g>
<g>
</g>
<g>
</g>
<g>
</g>
<g>
</g>
<g>
</g>
<g>
</g>
<g>
</g>
<g>
</g>
<g>
</g>
<g>
</g>
</svg>
