<?xml version="1.0" encoding="utf-8"?>
<!-- Generator: Adobe Illustrator 19.1.0, SVG Export Plug-In . SVG Version: 6.00 Build 0)  -->
<svg version="1.1" id="Layer_1" xmlns="http://www.w3.org/2000/svg" xmlns:xlink="http://www.w3.org/1999/xlink" x="0px" y="0px"
	 width="75px" height="75px" viewBox="0 0 75 75" enable-background="new 0 0 75 75" xml:space="preserve">
<g>
	<path d="M74.7,70.9l-1.2-6c-0.5-2.4-2.4-4.2-4.7-4.7l-1.6-0.4c-0.9-0.1-1.6-0.9-1.9-1.9l-0.2-1.5c-0.1-0.5,0.1-1,0.5-1.2
		c1.5-1.2,2.7-3,3.6-5.1c1.1-0.2,2-1.2,2.4-2.6c0.4-1.7-0.4-3.5-1.7-3.7l0,0c-0.4-4.6-2.1-8-8-8c-5.7,0-7.6,3.4-8,8l0,0
		c-1.4,0.2-2.1,2-1.7,3.7c0.4,1.4,1.2,2.5,2.4,2.6c0.7,2.1,2.1,3.9,3.6,5.1c0.4,0.2,0.5,0.7,0.5,1.2l-0.2,1.5
		c-0.2,0.9-0.9,1.6-1.9,1.9l-1.6,0.4c-2.4,0.5-4.2,2.4-4.7,4.7l-1.2,6c-0.2,1,0,2,0.7,2.9c0.6,0.7,1.6,1.2,2.6,1.2h19.5
		c1,0,2-0.5,2.6-1.2C74.6,72.9,74.8,71.9,74.7,70.9z"/>
	<path d="M25,64.9c-0.5-2.4-2.4-4.2-4.7-4.7l-1.6-0.4c-0.9-0.1-1.6-0.9-1.9-1.9l-0.2-1.5c-0.1-0.5,0.1-1,0.5-1.2
		c1.5-1.2,2.7-3,3.6-5.1c1.1-0.2,2-1.2,2.4-2.6c0.4-1.7-0.4-3.5-1.7-3.7l0,0c-0.4-4.6-2.1-8-8-8c-5.7,0-7.6,3.4-8,8l0,0
		c-1.4,0.2-2.1,2-1.7,3.7c0.4,1.4,1.2,2.5,2.4,2.6c0.7,2.1,2.1,3.9,3.6,5.1c0.4,0.2,0.5,0.7,0.5,1.2l-0.2,1.5
		c-0.2,0.9-0.9,1.6-1.9,1.9l-1.6,0.4c-2.4,0.5-4.2,2.4-4.7,4.7l-1.2,6c-0.2,1,0,2,0.7,2.9C1.7,74.5,2.7,75,3.7,75h19.1
		c1,0,2-0.5,2.6-1.2c0.6-0.7,0.9-1.9,0.7-2.9L25,64.9z"/>
	<path d="M51.6,39.2c0.2-0.2,0.4-0.6,0.1-1L49,32.6h3.9c2,0,3.5-1.6,3.5-3.5V13c0-2-1.6-3.5-3.5-3.5H44v10.2c0,3.7-3,6.7-6.7,6.7
		H26.7L24,28.3v0.9c0,2,1.6,3.5,3.5,3.5H39l11.6,6.7C50.8,39.5,51.3,39.4,51.6,39.2z"/>
	<path d="M11.8,23.2h3.9l-2.9,5.6c-0.2,0.4-0.1,0.7,0.1,1c0.1,0.1,0.4,0.2,0.5,0.2c0.1,0,0.2,0,0.5-0.1l11.7-6.7h11.5
		c2,0,3.5-1.6,3.5-3.5V3.6c0-2-1.6-3.5-3.5-3.5H11.8c-2,0-3.5,1.6-3.5,3.5v16.1C8.3,21.6,9.9,23.2,11.8,23.2z M31.6,9
		c1.5,0,2.6,1.2,2.6,2.6c0,1.5-1.2,2.6-2.6,2.6c-1.5,0-2.6-1.2-2.6-2.6C28.9,10.1,30.1,9,31.6,9z M24.5,9c1.5,0,2.6,1.2,2.6,2.6
		c0,1.5-1.2,2.6-2.6,2.6c-1.5,0-2.6-1.2-2.6-2.6C21.9,10.1,23,9,24.5,9z M17.4,9c1.5,0,2.6,1.2,2.6,2.6c0,1.5-1.2,2.6-2.6,2.6
		c-1.5,0-2.6-1.2-2.6-2.6C14.8,10.1,15.9,9,17.4,9z"/>
</g>
<g>
</g>
<g>
</g>
<g>
</g>
<g>
</g>
<g>
</g>
<g>
</g>
<g>
</g>
<g>
</g>
<g>
</g>
<g>
</g>
<g>
</g>
</svg>
