<?xml version="1.0" encoding="utf-8"?>
<!-- Generator: Adobe Illustrator 19.1.0, SVG Export Plug-In . SVG Version: 6.00 Build 0)  -->
<svg version="1.1" id="Layer_1" xmlns="http://www.w3.org/2000/svg" xmlns:xlink="http://www.w3.org/1999/xlink" x="0px" y="0px"
	 width="75px" height="75px" viewBox="0 0 75 75" enable-background="new 0 0 75 75" xml:space="preserve">
<g>
	<path d="M22,38.4c0-2-1.4-3.2-3.9-3.2c-1,0-1.7,0.1-2.1,0.2v6.5c0.4,0.1,1,0.1,1.7,0.1C20.3,42.1,22,40.6,22,38.4L22,38.4z"/>
	<path d="M37.3,35.3c-1.1,0-1.8,0.1-2.2,0.2v14.4c0.4,0.1,1.1,0.1,1.8,0.1c4.5,0,7.4-2.4,7.4-7.7C44.3,37.6,41.5,35.3,37.3,35.3
		L37.3,35.3z"/>
	<path d="M66.7,26.7h-1.8v-8.7V18c0-0.3-0.1-0.7-0.3-1L50.1,0.5l0,0c-0.1-0.1-0.2-0.2-0.3-0.2c0,0-0.1,0-0.1-0.1
		c-0.1,0-0.2-0.1-0.3-0.1c0,0,0,0-0.1,0S49,0,48.9,0H13.4c-1.7-0.1-3,1.2-3,2.9v24H8.6c-2.3-0.1-4.2,1.8-4.2,4.1v21.9
		c0,2.3,1.9,4.2,4.2,4.2h1.8v15c0,1.7,1.3,3,3,3h48.6c1.7,0,3-1.3,3-3V57.1h1.8c2.3,0,4.2-1.9,4.2-4.2V31
		C70.9,28.6,69,26.7,66.7,26.7L66.7,26.7z M13.4,2.9h34.2V18c0,0.8,0.7,1.4,1.4,1.4h13v7.4H13.4V2.9z M49.5,42.1
		c0,4.2-1.6,7.1-3.7,8.9c-2.3,1.9-5.9,2.9-10.2,2.9c-2.6,0-4.4-0.1-5.7-0.3V31.8c1.8-0.3,4.2-0.4,6.8-0.4c4.2,0,6.9,0.8,9,2.3
		C48.1,35.5,49.5,38.2,49.5,42.1L49.5,42.1z M11.1,53.6V31.8c1.6-0.2,3.7-0.4,6.8-0.4s5.2,0.6,6.8,1.8c1.4,1.1,2.3,2.9,2.3,5.1
		c0,2.1-0.7,4-2,5.2c-1.7,1.6-4.2,2.3-7.1,2.3c-0.7,0-1.2,0-1.7-0.1v7.9C16.2,53.6,11.1,53.6,11.1,53.6z M61.9,71.3H13.4V57.1h48.6
		V71.3z M66.3,35.6h-8.4v5h7.9v4h-7.9v8.9h-5V31.6h13.4C66.3,31.6,66.3,35.6,66.3,35.6z"/>
</g>
<g>
</g>
<g>
</g>
<g>
</g>
<g>
</g>
<g>
</g>
<g>
</g>
<g>
</g>
<g>
</g>
<g>
</g>
<g>
</g>
<g>
</g>
</svg>
