<?xml version="1.0" encoding="utf-8"?>
<!-- Generator: Adobe Illustrator 19.1.0, SVG Export Plug-In . SVG Version: 6.00 Build 0)  -->
<svg version="1.1" id="Layer_1" xmlns="http://www.w3.org/2000/svg" xmlns:xlink="http://www.w3.org/1999/xlink" x="0px" y="0px"
	 width="75px" height="75px" viewBox="0 0 75 75" enable-background="new 0 0 75 75" xml:space="preserve">
<path id="path-1" fill="#FFFFFF" d="M37.5,75C16.8,75,0,58.2,0,37.5C0,16.8,16.8,0,37.5,0S75,16.8,75,37.5C75,58.2,58.2,75,37.5,75z
	 M57.9,34.8h-4.2c-1.5-7.5-8.1-13.3-16-13.3c-7.9,0-14.6,5.7-16,13.3h-4.2v6.2h4.2c1.5,7.5,8.1,13.3,16,13.3c7.9,0,14.6-5.7,16-13.3
	h4.2V34.8z M52.6,36.3h1.2c0.9,0,1.6,0.7,1.6,1.7c0,0.9-0.7,1.7-1.6,1.7l-1.2,0V36.3z M53.2,39l0.6,0c0.5,0,1-0.5,1-1
	c0-0.6-0.4-1-1-1l-0.6,0V39z M49.5,37.4v2.2H49v-3.3h0.6l1.7,2.3v-2.3h0.6v3.3h-0.6L49.5,37.4z M46.8,39.7c-0.8,0-1.4-0.7-1.4-1.5
	v-1.9H46l0,2c0,0.5,0.4,0.9,0.8,0.9c0.5,0,0.8-0.4,0.8-0.9v-2h0.6l0,1.9C48.2,39.1,47.6,39.7,46.8,39.7z M37.7,27.3
	c4.8,0,8.9,3.2,10.2,7.6H27.5C28.8,30.5,32.9,27.3,37.7,27.3z M30.1,37.9c0,0.9-0.7,1.7-1.6,1.7l-1.2,0v-3.3h1.2
	C29.4,36.3,30.1,37,30.1,37.9z M28,36.9V39l0.6,0c0.5,0,1-0.5,1-1c0-0.6-0.4-1-1-1L28,36.9z M24.4,37.4v2.2h-0.6v-3.3h0.6l1.7,2.3
	v-2.3h0.6v3.3h-0.6L24.4,37.4z M21.8,39.7c-0.8,0-1.4-0.7-1.4-1.5v-1.9H21l0,2c0,0.5,0.4,0.9,0.8,0.9c0.5,0,0.8-0.4,0.8-0.9v-2h0.6
	l0,1.9C23.2,39.1,22.6,39.7,21.8,39.7z M32.6,38.9v0.7h-2v-3.3h2v0.7h-1.4v0.6h1.1v0.6h-1.1v0.8H32.6z M35,39.6l-0.9-1.3h-0.4v1.3
	h-0.6v-3.3h1.1c0.5,0,1,0.4,1,1c0,0.4-0.2,0.7-0.5,0.9l1,1.4H35z M34.3,36.9l-0.5,0v0.8h0.5c0.2,0,0.4-0.2,0.4-0.4
	C34.7,37.1,34.5,36.9,34.3,36.9z M37.4,38.3v-0.6h1.1v1.6c-1.1,0.9-2.9,0.3-2.9-1.4c0-1.7,1.6-1.9,2.8-1.4v0.7
	c-1.3-0.7-2.2-0.1-2.2,0.7c0,0.9,0.7,1.5,1.7,1.1v-0.7H37.4z M40.9,39.6L40,38.3h-0.4v1.3h-0.6v-3.3h1.1c0.5,0,1,0.4,1,1
	c0,0.4-0.2,0.7-0.5,0.9l1,1.4H40.9z M40.2,36.9l-0.5,0v0.8h0.5c0.2,0,0.4-0.2,0.4-0.4C40.6,37.1,40.4,36.9,40.2,36.9z M41.6,38
	c0-1,0.7-1.7,1.7-1.7c0.9,0,1.7,0.8,1.7,1.7c0,1-0.7,1.7-1.7,1.7C42.4,39.7,41.6,38.9,41.6,38z M44.3,38c0-0.6-0.5-1.1-1-1.1
	c-0.6,0-1,0.5-1,1.1c0,0.6,0.5,1.1,1,1.1C43.8,39,44.3,38.6,44.3,38z M37.7,48.7c-4.8,0-8.9-3.2-10.2-7.6h20.4
	C46.6,45.5,42.5,48.7,37.7,48.7z"/>
</svg>
